<?xml version="1.0" encoding="utf-8"?>
<!-- Generator: Adobe Illustrator 18.0.0, SVG Export Plug-In . SVG Version: 6.00 Build 0)  -->
<!DOCTYPE svg PUBLIC "-//W3C//DTD SVG 1.1//EN" "http://www.w3.org/Graphics/SVG/1.1/DTD/svg11.dtd">
<svg version="1.1" xmlns="http://www.w3.org/2000/svg" xmlns:xlink="http://www.w3.org/1999/xlink" x="0px" y="0px"
	 viewBox="0 0 1206 864" enable-background="new 0 0 1206 864" xml:space="preserve">
<g id="Color_2">
	<path fill="#0000FF" d="M481.5,436c-2.1,0-4.1-0.8-5.6-2.3c-1.4-1.5-2.3-3.5-2.3-5.6c0-2,0.9-4.1,2.3-5.6c2.9-2.9,8.2-2.9,11.2,0
		c1.4,1.5,2.3,3.5,2.3,5.6c0,2.1-0.9,4.1-2.3,5.6C485.6,435.2,483.6,436,481.5,436z"/>
	<path fill="#0000FF" d="M487.8,415.8c-3.9-2-5.4-6.7-3.5-10.6l0,0c1.9-3.9,6.7-5.5,10.5-3.5l0,0c3.9,2,5.5,6.7,3.5,10.6l0,0
		c-1.4,2.7-4.2,4.3-7.1,4.3l0,0C490.1,416.6,488.9,416.3,487.8,415.8z"/>
	<path fill="#0000FF" d="M497.5,396.3c-3.9-2-5.5-6.7-3.5-10.6l0,0c2-3.9,6.7-5.4,10.6-3.5l0,0c3.9,2,5.4,6.7,3.5,10.6l0,0
		c-1.4,2.8-4.2,4.3-7.1,4.3l0,0C499.9,397.1,498.7,396.9,497.5,396.3z"/>
	<path fill="#0000FF" d="M507.3,376.8c-3.9-2-5.4-6.7-3.5-10.6l0,0c2-3.9,6.7-5.5,10.5-3.5l0,0c3.9,2,5.5,6.7,3.5,10.6l0,0
		c-1.4,2.7-4.2,4.3-7,4.3l0,0C509.6,377.7,508.4,377.4,507.3,376.8z"/>
	<path fill="#0000FF" d="M517,357.4c-3.9-1.9-5.4-6.7-3.5-10.6l0,0c2-3.9,6.7-5.5,10.5-3.5l0,0c3.9,1.9,5.5,6.7,3.5,10.6l0,0
		c-1.4,2.8-4.2,4.3-7.1,4.3l0,0C519.4,358.2,518.2,358,517,357.4z"/>
	<path fill="#0000FF" d="M526.8,337.9c-3.9-2-5.5-6.7-3.5-10.6l0,0c1.9-3.9,6.7-5.4,10.6-3.5l0,0c3.9,2,5.4,6.7,3.5,10.6l0,0
		c-1.4,2.7-4.2,4.3-7,4.3l0,0C529.1,338.8,527.9,338.5,526.8,337.9z"/>
	<path fill="#0000FF" d="M536.5,318.4c-3.9-1.9-5.4-6.7-3.5-10.6l0,0c1.9-3.9,6.7-5.4,10.6-3.5l0,0c3.9,1.9,5.5,6.7,3.5,10.6l0,0
		c-1.4,2.8-4.2,4.3-7.1,4.3l0,0C538.9,319.3,537.7,319,536.5,318.4z"/>
	<path fill="#0000FF" d="M546.3,299c-3.9-2-5.5-6.7-3.5-10.6l0,0c1.9-3.9,6.7-5.4,10.6-3.5l0,0c3.9,1.9,5.4,6.7,3.5,10.5l0,0
		c-1.4,2.8-4.2,4.4-7,4.4l0,0C548.7,299.8,547.5,299.6,546.3,299z"/>
	<path fill="#0000FF" d="M556.1,279.5c-3.9-2-5.5-6.7-3.5-10.5l0,0c2-3.9,6.7-5.4,10.6-3.5l0,0c3.9,1.9,5.5,6.7,3.5,10.6l0,0
		c-1.4,2.8-4.2,4.4-7,4.4l0,0C558.4,280.4,557.2,280.1,556.1,279.5z"/>
	<path fill="#0000FF" d="M569.3,260.9c-2.1,0-4.1-0.9-5.5-2.3c-1.5-1.4-2.3-3.5-2.3-5.6c0-2,0.9-4.1,2.3-5.5c2.9-2.9,8.2-2.9,11.1,0
		c1.5,1.4,2.3,3.5,2.3,5.5c0,2.1-0.8,4.1-2.3,5.6C573.4,260,571.4,260.9,569.3,260.9z"/>
	<path fill="#0000FF" d="M640.4,412.3c-2-3.9-0.4-8.6,3.5-10.6l0,0c3.9-2,8.6-0.4,10.6,3.5l0,0c2,3.9,0.4,8.6-3.5,10.6l0,0
		c-1.1,0.6-2.3,0.8-3.5,0.8l0,0C644.5,416.6,641.7,415,640.4,412.3z"/>
	<path fill="#0000FF" d="M630.6,392.8c-2-3.9-0.4-8.6,3.5-10.6l0,0c3.9-1.9,8.6-0.4,10.6,3.5l0,0c2,3.9,0.4,8.6-3.5,10.6l0,0
		c-1.1,0.6-2.3,0.8-3.5,0.8l0,0C634.8,397.1,632,395.5,630.6,392.8z"/>
	<path fill="#0000FF" d="M620.8,373.3c-1.9-3.9-0.4-8.6,3.5-10.6l0,0c3.9-2,8.6-0.4,10.6,3.5l0,0c2,3.9,0.4,8.6-3.5,10.6l0,0
		c-1.1,0.6-2.4,0.8-3.5,0.8l0,0C625,377.7,622.2,376.1,620.8,373.3z"/>
	<path fill="#0000FF" d="M611.1,353.9c-2-3.9-0.4-8.6,3.5-10.6l0,0c3.9-2,8.6-0.4,10.6,3.5l0,0c1.9,3.9,0.4,8.6-3.5,10.6l0,0
		c-1.1,0.6-2.3,0.8-3.5,0.8l0,0C615.3,358.2,612.5,356.6,611.1,353.9z"/>
	<path fill="#0000FF" d="M601.3,334.4c-2-3.9-0.4-8.6,3.5-10.6l0,0c3.9-1.9,8.6-0.4,10.5,3.5l0,0c2,3.9,0.4,8.6-3.5,10.6l0,0
		c-1.1,0.6-2.3,0.9-3.5,0.9l0,0C605.5,338.8,602.7,337.2,601.3,334.4z"/>
	<path fill="#0000FF" d="M591.6,314.9c-2-3.9-0.4-8.6,3.5-10.6l0,0c3.9-2,8.6-0.4,10.6,3.5l0,0c1.9,3.9,0.4,8.6-3.5,10.6l0,0
		c-1.1,0.6-2.3,0.8-3.5,0.8l0,0C595.7,319.3,593,317.7,591.6,314.9z"/>
	<path fill="#0000FF" d="M581.8,295.5c-1.9-3.9-0.4-8.6,3.5-10.6l0,0c3.9-2,8.6-0.4,10.6,3.5l0,0c1.9,3.9,0.4,8.6-3.5,10.6l0,0
		c-1.1,0.6-2.3,0.9-3.5,0.9l0,0C586,299.8,583.2,298.2,581.8,295.5z"/>
	<path fill="#0000FF" d="M572.1,276c-2-3.9-0.4-8.6,3.5-10.6l0,0c3.9-2,8.6-0.4,10.6,3.5l0,0c2,3.9,0.4,8.6-3.5,10.6l0,0
		c-1.1,0.6-2.4,0.8-3.5,0.8l0,0C576.2,280.4,573.4,278.8,572.1,276z"/>
	<path fill="#0000FF" d="M657.2,436c-2.1,0-4.1-0.8-5.6-2.3c-1.5-1.4-2.3-3.5-2.3-5.6c0-2.1,0.8-4.1,2.3-5.6c2.9-2.9,8.2-2.9,11.1,0
		c1.5,1.5,2.3,3.5,2.3,5.6c0,2.1-0.9,4.1-2.3,5.6C661.3,435.2,659.3,436,657.2,436z"/>
	<path fill="#0000FF" d="M510.8,377.7c-2.1,0-4.1-0.8-5.6-2.3c-1.4-1.5-2.3-3.5-2.3-5.6c0-2.1,0.9-4.1,2.3-5.6
		c2.9-2.9,8.2-2.9,11.2,0c1.5,1.5,2.3,3.5,2.3,5.6c0,2.1-0.8,4.1-2.3,5.6C514.9,376.9,512.9,377.7,510.8,377.7z"/>
	<path fill="#0000FF" d="M600.5,369.9c0-4.3,3.5-7.9,7.9-7.9l0,0c4.4,0,7.9,3.5,7.9,7.9l0,0c0,4.3-3.5,7.9-7.9,7.9l0,0
		C604.1,377.7,600.5,374.2,600.5,369.9z"/>
	<path fill="#0000FF" d="M581,369.9c0-4.3,3.5-7.9,7.9-7.9l0,0c4.3,0,7.9,3.5,7.9,7.9l0,0c0,4.3-3.5,7.9-7.9,7.9l0,0
		C584.5,377.7,581,374.2,581,369.9z"/>
	<path fill="#0000FF" d="M561.5,369.9c0-4.3,3.5-7.9,7.9-7.9l0,0c4.3,0,7.9,3.5,7.9,7.9l0,0c0,4.3-3.5,7.9-7.9,7.9l0,0
		C565,377.7,561.5,374.2,561.5,369.9z"/>
	<path fill="#0000FF" d="M541.9,369.9c0-4.3,3.5-7.9,7.9-7.9l0,0c4.4,0,7.9,3.5,7.9,7.9l0,0c0,4.3-3.5,7.9-7.9,7.9l0,0
		C545.5,377.7,541.9,374.2,541.9,369.9z"/>
	<path fill="#0000FF" d="M522.4,369.9c0-4.3,3.5-7.9,7.9-7.9l0,0c4.3,0,7.9,3.5,7.9,7.9l0,0c0,4.3-3.5,7.9-7.9,7.9l0,0
		C526,377.7,522.4,374.2,522.4,369.9z"/>
	<path fill="#0000FF" d="M627.9,377.7c-2.1,0-4.1-0.8-5.6-2.3c-1.5-1.5-2.3-3.5-2.3-5.6c0-2.1,0.8-4.1,2.3-5.6
		c2.9-2.9,8.2-2.9,11.1,0c1.5,1.5,2.3,3.5,2.3,5.6c0,2.1-0.8,4.1-2.3,5.6C632,376.9,630,377.7,627.9,377.7z"/>
	<path fill="#0000FF" d="M343,406.1c0-4.4,3.5-7.9,7.9-7.9l0,0c4.3,0,7.9,3.5,7.9,7.9l0,0c0,4.3-3.5,7.9-7.9,7.9l0,0
		C346.6,413.9,343,410.4,343,406.1z"/>
	<path fill="#0000FF" d="M343,384.2c0-4.3,3.5-7.9,7.9-7.9l0,0c4.3,0,7.9,3.5,7.9,7.9l0,0c0,4.3-3.5,7.9-7.9,7.9l0,0
		C346.6,392.1,343,388.5,343,384.2z"/>
	<path fill="#0000FF" d="M343,362.3c0-4.3,3.5-7.9,7.9-7.9l0,0c4.3,0,7.9,3.5,7.9,7.9l0,0c0,4.4-3.5,7.9-7.9,7.9l0,0
		C346.6,370.2,343,366.6,343,362.3z"/>
	<path fill="#0000FF" d="M343,318.5c0-4.3,3.5-7.9,7.9-7.9l0,0c4.3,0,7.9,3.5,7.9,7.9l0,0c0,4.4-3.5,7.9-7.9,7.9l0,0
		C346.6,326.4,343,322.9,343,318.5z"/>
	<path fill="#0000FF" d="M343,296.6c0-4.3,3.5-7.9,7.9-7.9l0,0c4.3,0,7.9,3.5,7.9,7.9l0,0c0,4.3-3.5,7.9-7.9,7.9l0,0
		C346.6,304.5,343,301,343,296.6z"/>
	<path fill="#0000FF" d="M343,274.7c0-4.4,3.5-7.9,7.9-7.9l0,0c4.3,0,7.9,3.5,7.9,7.9l0,0c0,4.4-3.5,7.9-7.9,7.9l0,0
		C346.6,282.6,343,279.1,343,274.7z"/>
	<path fill="#0000FF" d="M849.3,414.2c-2.1,0-4.1-0.8-5.6-2.3c-1.4-1.4-2.3-3.5-2.3-5.5c0-2.1,0.8-4.1,2.3-5.6
		c2.9-2.9,8.2-2.9,11.2,0c1.4,1.4,2.3,3.5,2.3,5.6c0,2-0.8,4.1-2.3,5.5C853.4,413.4,851.4,414.2,849.3,414.2z"/>
	<path fill="#0000FF" d="M882.3,435.8c-4.3-0.7-7.2-4.7-6.6-8.9l0,0c0.6-4.3,4.7-7.3,8.9-6.6l0,0c4.3,0.6,7.2,4.6,6.6,9l0,0
		c-0.6,3.9-3.9,6.7-7.8,6.7l0,0C883.1,435.9,882.7,435.8,882.3,435.8z"/>
	<path fill="#0000FF" d="M896.5,428.9c-0.9-4.3,1.8-8.4,6-9.4l0,0l0,0l0,0c4.3-0.9,8.4,1.8,9.4,6l0,0c0.9,4.2-1.8,8.4-6,9.4l0,0
		c-0.6,0.1-1.1,0.2-1.7,0.2l0,0C900.6,435.1,897.3,432.6,896.5,428.9z"/>
	<path fill="#0000FF" d="M860,427.4c-3.7-2.3-4.8-7.2-2.5-10.9l0,0c2.3-3.7,7.2-4.8,10.9-2.4l0,0l0,0l0,0c3.7,2.3,4.8,7.2,2.4,10.9
		l0,0c-1.5,2.4-4,3.7-6.6,3.7l0,0C862.7,428.7,861.3,428.2,860,427.4z"/>
	<path fill="#0000FF" d="M916.7,423.6c-2.5-3.6-1.6-8.5,2-11l0,0l0,0l0,0c3.6-2.5,8.5-1.6,11,2l0,0c2.5,3.6,1.6,8.5-2,11l0,0
		c-1.4,0.9-2.9,1.4-4.5,1.4l0,0C920.7,426.9,918.3,425.7,916.7,423.6z"/>
	<path fill="#0000FF" d="M933.3,410.7c-3.9-2-5.4-6.7-3.4-10.6l0,0c2-3.8,6.7-5.3,10.6-3.4l0,0c3.8,2,5.4,6.8,3.4,10.6l0,0
		c-1.4,2.7-4.2,4.3-7,4.3l0,0C935.7,411.6,934.4,411.3,933.3,410.7z"/>
	<path fill="#0000FF" d="M933.5,383.8c-0.1-4.3,3.4-8,7.7-8l0,0c4.4-0.1,7.9,3.4,8,7.7l0,0c0.1,4.3-3.4,7.9-7.7,8l0,0
		c0,0-0.1,0-0.2,0l0,0C937.1,391.5,933.6,388.1,933.5,383.8z"/>
	<path fill="#0000FF" d="M929.4,368.1L929.4,368.1L929.4,368.1c-2.3-3.7-1.2-8.6,2.5-10.9l0,0c3.7-2.3,8.5-1.2,10.9,2.5l0,0
		c2.3,3.7,1.2,8.5-2.5,10.9l0,0c-1.3,0.8-2.8,1.2-4.2,1.2l0,0C933.5,371.8,930.9,370.5,929.4,368.1z"/>
	<path fill="#0000FF" d="M917,357.6L917,357.6L917,357.6c-3.9-2-5.4-6.7-3.5-10.6l0,0c2-3.9,6.7-5.5,10.6-3.5l0,0
		c3.9,2,5.4,6.7,3.5,10.6l0,0c-1.4,2.7-4.2,4.3-7,4.3l0,0C919.4,358.4,918.2,358.1,917,357.6z"/>
	<path fill="#0000FF" d="M899,351.1c-4.2-1.1-6.7-5.5-5.5-9.7l0,0c1.1-4.2,5.5-6.7,9.7-5.5l0,0c4.2,1.2,6.7,5.5,5.5,9.7l0,0
		c-0.9,3.5-4.1,5.8-7.6,5.8l0,0C900.4,351.4,899.7,351.3,899,351.1z"/>
	<path fill="#0000FF" d="M878.8,345.9L878.8,345.9L878.8,345.9c-4.2-1.1-6.6-5.5-5.5-9.7l0,0c1.1-4.2,5.5-6.7,9.7-5.5l0,0
		c4.2,1.1,6.7,5.5,5.5,9.7l0,0c-0.9,3.5-4.1,5.8-7.6,5.8l0,0C880.2,346.2,879.5,346.1,878.8,345.9z"/>
	<path fill="#0000FF" d="M857.7,338.2c-3.9-2-5.4-6.7-3.4-10.6l0,0c2-3.9,6.7-5.4,10.6-3.4h0c3.8,2,5.4,6.7,3.4,10.6l0,0
		c-1.4,2.7-4.2,4.3-7,4.3l0,0C860.1,339.1,858.9,338.9,857.7,338.2z"/>
	<path fill="#0000FF" d="M839.2,321.9L839.2,321.9L839.2,321.9c-2.3-3.7-1.1-8.6,2.6-10.8l0,0c3.7-2.3,8.6-1.1,10.8,2.6l0,0
		c2.3,3.7,1.1,8.6-2.6,10.8l0,0c-1.3,0.8-2.7,1.2-4.1,1.2l0,0C843.3,325.6,840.7,324.3,839.2,321.9z"/>
	<path fill="#0000FF" d="M832.9,298.1C832.9,298.1,832.9,298.1,832.9,298.1L832.9,298.1c-0.1-4.3,3.4-7.9,7.8-8l0,0
		c4.4-0.1,7.9,3.4,8,7.7l0,0c0.1,4.4-3.4,7.9-7.8,8l0,0c0,0-0.1,0-0.1,0l0,0C836.5,305.9,832.9,302.4,832.9,298.1z"/>
	<path fill="#0000FF" d="M841.6,284.9c-3.9-1.9-5.5-6.6-3.6-10.5l0,0c1.9-3.9,6.6-5.5,10.5-3.7l0,0c3.9,1.9,5.5,6.6,3.6,10.5l0,0
		c-1.4,2.8-4.2,4.4-7.1,4.4l0,0C843.9,285.7,842.7,285.5,841.6,284.9z"/>
	<path fill="#0000FF" d="M852,266.8c-2.5-3.6-1.7-8.4,1.9-11l0,0c3.6-2.5,8.5-1.6,11,1.9l0,0c2.5,3.6,1.6,8.5-1.9,11l0,0
		c-1.4,1-3,1.4-4.5,1.4l0,0C856,270.1,853.5,269,852,266.8z"/>
	<path fill="#0000FF" d="M913.4,267c-3.7-2.3-4.8-7.2-2.6-10.8l0,0c2.3-3.7,7.1-4.8,10.8-2.5l0,0c3.7,2.3,4.8,7.2,2.6,10.8l0,0
		c-1.5,2.4-4.1,3.7-6.7,3.7l0,0C916.1,268.1,914.7,267.8,913.4,267z"/>
	<path fill="#0000FF" d="M869.7,255.8c-0.9-4.3,1.8-8.4,6.1-9.4l0,0l0,0l0,0c4.2-0.9,8.4,1.8,9.4,6l0,0c0.9,4.2-1.8,8.4-6.1,9.4v0
		c-0.6,0.1-1.1,0.2-1.6,0.2l0,0C873.8,262,870.5,259.5,869.7,255.8z"/>
	<path fill="#0000FF" d="M897.1,261.1c-4.3-0.6-7.3-4.6-6.7-8.9l0,0c0.6-4.3,4.6-7.3,8.9-6.7l0,0v0l0,0c4.3,0.6,7.3,4.6,6.7,8.9l0,0
		c-0.5,3.9-3.9,6.8-7.8,6.8l0,0C897.8,261.1,897.4,261.1,897.1,261.1z"/>
	<path fill="#0000FF" d="M932.8,282.8c-2.1,0-4.1-0.8-5.6-2.3c-1.4-1.5-2.3-3.5-2.3-5.6c0-2.1,0.8-4.1,2.3-5.6c3-2.9,8.2-2.9,11.2,0
		c1.4,1.5,2.3,3.5,2.3,5.6c0,2.1-0.8,4.1-2.3,5.6C936.9,281.9,934.9,282.8,932.8,282.8z"/>
	<path fill="#0000FF" d="M716.5,340.6c0-4.3,3.5-7.9,7.8-7.9l0,0c4.3,0,7.9,3.5,7.9,7.9l0,0c0,4.4-3.5,7.9-7.9,7.9l0,0
		C720.1,348.5,716.5,345,716.5,340.6z"/>
	<path fill="#0000FF" d="M737,340.6c0-4.4,3.5-7.9,7.9-7.9l0,0c4.4,0,7.9,3.5,7.9,7.9l0,0c0,4.4-3.5,7.9-7.8,7.9l0,0c0,0,0,0,0,0
		l0,0C740.6,348.4,737,344.9,737,340.6z"/>
	<path fill="#0000FF" d="M757.6,340c-1.7-4,0.1-8.6,4.1-10.4l0,0c4-1.7,8.6,0.1,10.4,4.1l0,0c1.7,4-0.1,8.6-4.1,10.4l0,0
		c-1,0.5-2.1,0.7-3.2,0.7l0,0C761.8,344.8,758.9,343,757.6,340z"/>
	<path fill="#0000FF" d="M776,330.8c-3.3-2.8-3.8-7.7-1-11.1l0,0c2.8-3.3,7.7-3.8,11.1-1l0,0c3.3,2.8,3.8,7.7,1,11.1l0,0
		c-1.5,1.9-3.8,2.8-6,2.8l0,0C779.3,332.6,777.5,332,776,330.8z"/>
	<path fill="#0000FF" d="M788.3,314.2c-4.2-1-6.9-5.2-5.9-9.5l0,0c1-4.3,5.2-6.9,9.5-5.9l0,0c4.2,1,6.9,5.2,5.9,9.4l0,0
		c-0.9,3.6-4.1,6.1-7.7,6.1l0,0C789.5,314.4,788.9,314.4,788.3,314.2z"/>
	<path fill="#0000FF" d="M782.3,288.1c-1-4.2,1.5-8.5,5.8-9.5l0,0c4.2-1,8.5,1.6,9.5,5.8l0,0c1,4.2-1.5,8.5-5.8,9.5l0,0
		c-0.6,0.2-1.3,0.2-1.9,0.2l0,0C786.4,294.1,783.2,291.7,782.3,288.1z"/>
	<path fill="#0000FF" d="M774.7,273.3c-2.8-3.3-2.4-8.3,0.9-11.1l0,0c3.3-2.8,8.3-2.4,11.1,0.9l0,0c2.8,3.3,2.4,8.3-0.9,11.1l0,0
		c-1.5,1.3-3.3,1.9-5.1,1.9l0,0C778.5,276.1,776.3,275.1,774.7,273.3z"/>
	<path fill="#0000FF" d="M761.3,263.5c-4-1.7-5.9-6.3-4.2-10.3l0,0c1.7-4,6.3-5.9,10.3-4.2l0,0c4,1.7,5.9,6.3,4.2,10.3l0,0
		c-1.3,3-4.2,4.8-7.2,4.8l0,0C763.3,264.1,762.3,263.9,761.3,263.5z"/>
	<path fill="#0000FF" d="M716,252.9c0-4.3,3.5-7.9,7.8-7.9l0,0c4.3,0,7.9,3.5,7.9,7.8l0,0c0,4.3-3.5,7.9-7.8,7.9l0,0c0,0,0,0,0,0
		l0,0C719.5,260.8,716,257.2,716,252.9z"/>
	<path fill="#0000FF" d="M736.5,252.8c0-4.3,3.5-7.9,7.8-7.9l0,0c4.4,0,7.9,3.5,7.9,7.8l0,0c0,4.3-3.5,7.9-7.8,7.9l0,0c0,0,0,0,0,0
		l0,0C740,260.7,736.5,257.1,736.5,252.8z"/>
	<path fill="#0000FF" d="M771.1,419.1c-3.1-3.1-3.1-8.1,0-11.1l0,0c3.1-3.1,8.1-3.1,11.1,0l0,0c3.1,3.1,3.1,8.1,0,11.1l0,0
		c-1.5,1.5-3.6,2.3-5.5,2.3l0,0C774.6,421.4,772.6,420.7,771.1,419.1z"/>
	<path fill="#0000FF" d="M756.5,404.5c-3.1-3.1-3.1-8.1,0-11.2l0,0c3.1-3.1,8.1-3.1,11.1,0l0,0c3.1,3,3.1,8.1,0,11.1l0,0
		c-1.5,1.5-3.6,2.3-5.6,2.3l0,0C760.1,406.8,758,406.1,756.5,404.5z"/>
	<path fill="#0000FF" d="M741.9,390c-3.1-3.1-3.1-8.1,0-11.1l0,0c3.1-3.1,8.1-3.1,11.1,0l0,0c3.1,3.1,3.1,8,0,11.1l0,0
		c-1.5,1.5-3.6,2.3-5.6,2.3l0,0C745.5,392.3,743.5,391.5,741.9,390z"/>
	<path fill="#0000FF" d="M727.4,375.4c-3.1-3.1-3-8.1,0-11.1l0,0c3.1-3.1,8.1-3.1,11.2,0l0,0c3.1,3.1,3.1,8.1,0,11.1l0,0
		c-1.5,1.5-3.6,2.3-5.6,2.3l0,0C731,377.7,728.9,376.9,727.4,375.4z"/>
	<path fill="#0000FF" d="M791.2,436c-2.1,0-4.1-0.8-5.6-2.3c-1.5-1.5-2.3-3.5-2.3-5.6c0-2,0.8-4.1,2.3-5.6c2.9-2.9,8.2-2.9,11.1,0
		c1.5,1.5,2.3,3.5,2.3,5.6c0,2.1-0.8,4.1-2.3,5.6C795.3,435.1,793.2,436,791.2,436z"/>
	<path fill="#0000FF" d="M254.9,340.5"/>
	<path fill="#0000FF" d="M298.8,260.9c-2,0-4.1-0.9-5.5-2.3c-1.5-1.5-2.3-3.5-2.3-5.6c0-2,0.9-4.1,2.3-5.5c2.9-2.9,8.2-2.9,11.2,0
		c1.5,1.5,2.3,3.5,2.3,5.5c0,2.1-0.8,4.1-2.3,5.6C302.9,260,300.9,260.9,298.8,260.9z"/>
	<path fill="#0000FF" d="M260.1,330.1c-3.9-2-5.4-6.7-3.5-10.6l0,0c1.9-3.9,6.7-5.4,10.6-3.5l0,0c3.9,1.9,5.4,6.7,3.5,10.5l0,0
		c-1.4,2.8-4.2,4.3-7.1,4.3l0,0C262.5,330.9,261.3,330.6,260.1,330.1z"/>
	<path fill="#0000FF" d="M268.9,312.5c-3.9-2-5.4-6.7-3.5-10.6l0,0c1.9-3.9,6.7-5.4,10.5-3.5l0,0c3.9,2,5.5,6.7,3.5,10.6l0,0
		c-1.4,2.8-4.2,4.4-7.1,4.4l0,0C271.2,313.4,270,313.2,268.9,312.5z"/>
	<path fill="#0000FF" d="M277.7,295.1c-3.9-2-5.5-6.7-3.5-10.5l0,0c1.9-3.9,6.7-5.5,10.6-3.5l0,0c3.9,2,5.5,6.7,3.5,10.6l0,0
		c-1.4,2.7-4.2,4.3-7.1,4.3l0,0C280,295.9,278.8,295.6,277.7,295.1z"/>
	<path fill="#0000FF" d="M286.5,277.6c-3.9-2-5.5-6.7-3.5-10.6l0,0c2-3.9,6.7-5.4,10.6-3.5l0,0c3.9,2,5.4,6.7,3.5,10.6l0,0
		c-1.4,2.7-4.2,4.4-7.1,4.4l0,0C288.8,278.4,287.6,278.1,286.5,277.6z"/>
	<path fill="#0000FF" d="M239.1,326.5c-2-3.9-0.4-8.6,3.5-10.5l0,0c3.9-2,8.6-0.4,10.6,3.5l0,0c2,3.9,0.4,8.6-3.5,10.6l0,0
		c-1.1,0.6-2.3,0.8-3.5,0.8l0,0C243.2,330.9,240.5,329.3,239.1,326.5z"/>
	<path fill="#0000FF" d="M230.3,309c-2-3.9-0.4-8.6,3.5-10.5l0,0c3.9-2,8.6-0.4,10.6,3.5l0,0c1.9,3.9,0.4,8.6-3.5,10.5l0,0
		c-1.1,0.6-2.3,0.9-3.5,0.9l0,0C234.5,313.4,231.7,311.8,230.3,309z"/>
	<path fill="#0000FF" d="M221.5,291.6c-2-3.9-0.4-8.6,3.5-10.6l0,0c3.9-1.9,8.6-0.4,10.6,3.5l0,0c2,3.9,0.4,8.6-3.5,10.5l0,0
		c-1.1,0.6-2.4,0.8-3.5,0.8l0,0C225.7,295.9,222.9,294.3,221.5,291.6z"/>
	<path fill="#0000FF" d="M212.7,274.1c-2-3.9-0.4-8.6,3.5-10.6l0,0c3.9-2,8.6-0.4,10.6,3.5l0,0c2,3.9,0.4,8.6-3.5,10.6l0,0
		c-1.1,0.6-2.3,0.8-3.5,0.8l0,0C216.9,278.4,214.1,276.8,212.7,274.1z"/>
	<path fill="#0000FF" d="M211,260.9c-2.1,0-4.1-0.9-5.6-2.3c-1.4-1.5-2.3-3.5-2.3-5.6c0-2,0.9-4.1,2.3-5.5c2.9-2.9,8.2-2.9,11.2,0
		c1.4,1.5,2.3,3.5,2.3,5.5c0,2.1-0.9,4.1-2.3,5.6C215.1,260,213.1,260.9,211,260.9z"/>
	<path fill="#0000FF" d="M650.4,668.1c-2.1,0-4.1-0.8-5.6-2.3c-1.5-1.5-2.3-3.5-2.3-5.6c0-2.1,0.8-4.1,2.3-5.6
		c2.9-2.9,8.2-2.9,11.1,0c1.5,1.5,2.3,3.5,2.3,5.6c0,2.1-0.8,4.1-2.3,5.6C654.5,667.3,652.5,668.1,650.4,668.1z"/>
	<path fill="#0000FF" d="M642.5,638.4c0-4.3,3.5-7.9,7.9-7.9l0,0c4.4,0,7.9,3.5,7.9,7.9l0,0c0,4.3-3.5,7.9-7.9,7.9l0,0
		C646,646.2,642.5,642.7,642.5,638.4z"/>
	<path fill="#0000FF" d="M642.5,616.5c0-4.3,3.5-7.9,7.9-7.9l0,0c4.4,0,7.9,3.5,7.9,7.9l0,0c0,4.3-3.5,7.9-7.9,7.9l0,0
		C646,624.3,642.5,620.8,642.5,616.5z"/>
	<path fill="#0000FF" d="M642.5,594.6c0-4.3,3.5-7.9,7.9-7.9l0,0c4.4,0,7.9,3.5,7.9,7.9l0,0c0,4.3-3.5,7.9-7.9,7.9l0,0
		C646,602.5,642.5,598.9,642.5,594.6z"/>
	<path fill="#0000FF" d="M642.5,550.8c0-4.3,3.5-7.9,7.9-7.9l0,0c4.4,0,7.9,3.5,7.9,7.9l0,0c0,4.4-3.5,7.9-7.9,7.9l0,0
		C646,558.7,642.5,555.2,642.5,550.8z"/>
	<path fill="#0000FF" d="M642.5,528.9c0-4.3,3.5-7.9,7.9-7.9l0,0c4.4,0,7.9,3.5,7.9,7.9l0,0c0,4.4-3.5,7.9-7.9,7.9l0,0
		C646,536.8,642.5,533.3,642.5,528.9z"/>
	<path fill="#0000FF" d="M642.5,507c0-4.3,3.5-7.8,7.9-7.8l0,0c4.4,0,7.9,3.5,7.9,7.8l0,0c0,4.4-3.5,7.9-7.9,7.9l0,0
		C646,514.9,642.5,511.4,642.5,507z"/>
	<path fill="#0000FF" d="M496.7,41c0,4.6-3.7,8.3-8.3,8.3c-4.6,0-8.3-3.7-8.3-8.3c0-4.6,3.7-8.3,8.3-8.3
		C493,32.7,496.7,36.4,496.7,41z"/>
	<path fill="#0000FF" d="M496.7,62.1c0,4.6-3.7,8.3-8.3,8.3c-4.6,0-8.3-3.7-8.3-8.3c0-4.6,3.7-8.3,8.3-8.3
		C493,53.8,496.7,57.5,496.7,62.1z"/>
	<path fill="#0000FF" d="M496.7,83.1c0,4.6-3.7,8.3-8.3,8.3c-4.6,0-8.3-3.7-8.3-8.3c0-4.6,3.7-8.3,8.3-8.3
		C493,74.8,496.7,78.5,496.7,83.1z"/>
	<path fill="#0000FF" d="M496.7,104.1c0,4.6-3.7,8.3-8.3,8.3c-4.6,0-8.3-3.7-8.3-8.3c0-4.6,3.7-8.3,8.3-8.3
		C493,95.8,496.7,99.5,496.7,104.1z"/>
	<path fill="#0000FF" d="M541.8,86.1c0,4.6-3.7,8.3-8.3,8.3c-4.6,0-8.3-3.7-8.3-8.3c0-4.6,3.7-8.3,8.3-8.3
		C538.1,77.8,541.8,81.5,541.8,86.1z"/>
	<path fill="#0000FF" d="M519.4,89.9c0,4.6-3.7,8.3-8.3,8.3c-4.6,0-8.3-3.7-8.3-8.3c0-4.6,3.7-8.3,8.3-8.3
		C515.7,81.5,519.4,85.3,519.4,89.9z"/>
	<path fill="#0000FF" d="M498.8,185c0,4.6-3.7,8.3-8.3,8.3c-4.6,0-8.3-3.7-8.3-8.3c0-4.6,3.7-8.3,8.3-8.3
		C495.1,176.7,498.8,180.4,498.8,185z"/>
	<path fill="#0000FF" d="M542.1,197.8c0,4.6-3.7,8.3-8.3,8.3c-4.6,0-8.3-3.7-8.3-8.3c0-4.6,3.7-8.3,8.3-8.3
		C538.4,189.5,542.1,193.3,542.1,197.8z"/>
	<path fill="#0000FF" d="M518.8,195.5c0,4.6-3.7,8.3-8.3,8.3c-4.6,0-8.3-3.7-8.3-8.3c0-4.6,3.7-8.3,8.3-8.3
		C515.1,187.2,518.8,190.9,518.8,195.5z"/>
	<path fill="#0000FF" d="M583.5,107.9c0,4.6-3.7,8.3-8.3,8.3c-4.6,0-8.3-3.7-8.3-8.3c0-4.6,3.7-8.3,8.3-8.3
		C579.8,99.6,583.5,103.3,583.5,107.9z"/>
	<path fill="#0000FF" d="M564.7,93.4c0,4.6-3.7,8.3-8.3,8.3c-4.6,0-8.3-3.7-8.3-8.3c0-4.6,3.7-8.3,8.3-8.3
		C561,85.1,564.7,88.8,564.7,93.4z"/>
	<path fill="#0000FF" d="M585.6,175.6c0,4.6-3.7,8.3-8.3,8.3c-4.6,0-8.3-3.7-8.3-8.3c0-4.6,3.7-8.3,8.3-8.3
		C581.8,167.3,585.6,171.1,585.6,175.6z"/>
	<path fill="#0000FF" d="M594.3,152.5c0,4.6-3.7,8.3-8.3,8.3c-4.6,0-8.3-3.7-8.3-8.3c0-4.6,3.7-8.3,8.3-8.3
		C590.6,144.2,594.3,148,594.3,152.5z"/>
	<path fill="#0000FF" d="M594.3,129c0,4.6-3.7,8.3-8.3,8.3c-4.6,0-8.3-3.7-8.3-8.3c0-4.6,3.7-8.3,8.3-8.3
		C590.6,120.7,594.3,124.5,594.3,129z"/>
	<path fill="#0000FF" d="M565.5,191.2c0,4.6-3.7,8.3-8.3,8.3c-4.6,0-8.3-3.7-8.3-8.3c0-4.6,3.7-8.3,8.3-8.3
		C561.8,182.9,565.5,186.6,565.5,191.2z"/>
	<path fill="#0000FF" d="M355.1,48.1c0,4.6-3.7,8.3-8.3,8.3c-4.6,0-8.3-3.7-8.3-8.3c0-4.6,3.7-8.3,8.3-8.3
		C351.4,39.8,355.1,43.5,355.1,48.1z"/>
	<path fill="#0000FF" d="M370.2,33.1c0,4.6-3.7,8.3-8.3,8.3c-4.6,0-8.3-3.7-8.3-8.3c0-4.6,3.7-8.3,8.3-8.3
		C366.5,24.8,370.2,28.5,370.2,33.1z"/>
	<path fill="#0000FF" d="M385.1,18.2c0,4.6-3.7,8.3-8.3,8.3c-4.6,0-8.3-3.7-8.3-8.3c0-4.6,3.7-8.3,8.3-8.3
		C381.4,9.9,385.1,13.6,385.1,18.2z"/>
	<path fill="#0000FF" d="M721.8,201.6c-0.3-4.6,3.2-8.6,7.8-8.9l0,0c4.6-0.3,8.6,3.2,8.8,7.8l0,0c0.3,4.6-3.2,8.6-7.8,8.8l0,0
		c-0.2,0-0.4,0-0.5,0l0,0C725.7,209.4,722,206,721.8,201.6z"/>
	<path fill="#0000FF" d="M705.6,207.9c-4.5-0.9-7.5-5.2-6.7-9.7l0,0c0.9-4.5,5.2-7.5,9.8-6.7l0,0c4.5,0.9,7.5,5.2,6.7,9.7l0,0
		c-0.8,4-4.3,6.8-8.2,6.8l0,0C706.7,208,706.1,207.9,705.6,207.9z"/>
	<path fill="#0000FF" d="M744.7,199.3c-1.4-4.4,1-9.1,5.3-10.5h0c4.4-1.4,9.1,1,10.5,5.3l0,0c1.4,4.4-1,9.1-5.4,10.5l0,0l0,0l0,0
		c-0.9,0.3-1.7,0.4-2.6,0.4l0,0C749.1,205.1,745.9,202.9,744.7,199.3z"/>
	<path fill="#0000FF" d="M681.8,200.1c-4.2-1.9-6-6.9-4-11.1l0,0c2-4.2,6.9-6,11.1-4l0,0c4.2,1.9,6,6.9,4,11.1l0,0
		c-1.4,3-4.4,4.8-7.6,4.8l0,0C684.1,200.9,682.9,200.7,681.8,200.1z"/>
	<path fill="#0000FF" d="M766.4,191.4c-2.5-3.9-1.3-9.1,2.6-11.5l0,0c3.9-2.5,9-1.3,11.5,2.6l0,0c2.5,3.9,1.3,9.1-2.5,11.5l0,0
		c-1.4,0.9-2.9,1.3-4.5,1.3l0,0C770.7,195.3,768,193.9,766.4,191.4z"/>
	<path fill="#0000FF" d="M660.6,186.7C660.6,186.7,660.6,186.7,660.6,186.7L660.6,186.7c-3.6-2.9-4.1-8.2-1.1-11.8l0,0
		c3-3.6,8.2-4.1,11.8-1.1l0,0c3.6,3,4.1,8.2,1.1,11.8l0,0c-1.7,2-4,3-6.4,3l0,0C664,188.6,662.2,188,660.6,186.7z"/>
	<path fill="#0000FF" d="M785.4,178.4c-3.4-3.2-3.5-8.4-0.4-11.8l0,0c3.2-3.4,8.4-3.5,11.8-0.4l0,0c3.4,3.2,3.5,8.4,0.4,11.8l0,0
		l0,0l0,0c-1.6,1.8-3.9,2.6-6.1,2.6l0,0C789,180.6,787,179.9,785.4,178.4z"/>
	<path fill="#0000FF" d="M643.4,168.5c-2.7-3.7-1.9-8.9,1.8-11.7l0,0c3.7-2.7,8.9-1.9,11.7,1.8l0,0c2.7,3.7,1.9,9-1.8,11.7l0,0
		c-1.5,1.1-3.2,1.6-4.9,1.6l0,0C647.6,171.9,645.1,170.7,643.4,168.5z"/>
	<path fill="#0000FF" d="M800.6,161c-4-2.2-5.5-7.3-3.3-11.3h0c2.2-4,7.3-5.5,11.4-3.3l0,0c4,2.2,5.5,7.3,3.3,11.3l0,0
		c-1.5,2.8-4.4,4.3-7.3,4.3l0,0C803.2,162.1,801.9,161.7,800.6,161z"/>
	<path fill="#0000FF" d="M631.3,146.6c-1.7-4.3,0.4-9.1,4.7-10.9l0,0c4.3-1.7,9.1,0.4,10.8,4.7l0,0c1.7,4.3-0.4,9.1-4.7,10.8l0,0
		c-1,0.4-2.1,0.6-3.1,0.6l0,0C635.8,151.8,632.6,149.8,631.3,146.6z"/>
	<path fill="#0000FF" d="M811,140.5c-4.5-1.2-7.2-5.7-6-10.2l0,0c1.1-4.5,5.7-7.2,10.2-6l0,0c4.5,1.1,7.2,5.7,6,10.1l0,0
		c-1,3.8-4.4,6.3-8.1,6.3l0,0C812.4,140.7,811.7,140.6,811,140.5z"/>
	<path fill="#0000FF" d="M625,122.3c-0.6-4.6,2.7-8.8,7.2-9.4l0,0c4.6-0.6,8.8,2.7,9.3,7.2l0,0c0.6,4.6-2.7,8.8-7.2,9.3l0,0
		c-0.4,0.1-0.7,0.1-1.1,0.1l0,0C629.2,129.6,625.6,126.5,625,122.3z"/>
	<path fill="#0000FF" d="M807.6,109.6c0-0.1,0-0.1,0-0.2l0,0c0-0.1,0-0.1,0-0.1l0,0c0-4.6,3.7-8.4,8.3-8.4l0,0
		c4.6,0,8.4,3.7,8.4,8.3l0,0c0,0,0,0.1,0,0.1l0,0c0,0.1,0,0.2,0,0.3l0,0c0,4.6-3.8,8.4-8.3,8.4l0,0
		C811.3,117.9,807.6,114.2,807.6,109.6z"/>
	<path fill="#0000FF" d="M632.3,106.6c-4.6-0.6-7.8-4.7-7.3-9.3l0,0c0.6-4.6,4.7-7.8,9.3-7.3l0,0c4.6,0.6,7.8,4.7,7.3,9.3l0,0
		c-0.5,4.2-4.1,7.3-8.3,7.3l0,0C633,106.6,632.6,106.6,632.3,106.6z"/>
	<path fill="#0000FF" d="M804.9,88.5c-1.1-4.5,1.5-9,6-10.2l0,0c4.5-1.2,9,1.5,10.2,6l0,0l0,0l0,0c1.2,4.5-1.5,9-6,10.2l0,0
		c-0.7,0.2-1.4,0.3-2.1,0.3l0,0C809.3,94.8,805.9,92.3,804.9,88.5z"/>
	<path fill="#0000FF" d="M635.9,83.8c-4.3-1.7-6.4-6.5-4.7-10.8l0,0c1.7-4.3,6.5-6.4,10.8-4.7l0,0c4.3,1.7,6.4,6.5,4.7,10.8l0,0
		c-1.3,3.3-4.4,5.3-7.8,5.3l0,0C637.9,84.4,636.9,84.2,635.9,83.8z"/>
	<path fill="#0000FF" d="M797.1,69.2c-2.2-4-0.8-9.1,3.2-11.4l0,0c4-2.2,9.1-0.8,11.4,3.2l0,0c2.2,4,0.8,9.1-3.2,11.4l0,0
		c-1.3,0.7-2.7,1.1-4,1.1l0,0C801.5,73.5,798.6,71.9,797.1,69.2z"/>
	<path fill="#0000FF" d="M645.1,62.6c-3.7-2.7-4.6-7.9-1.9-11.7l0,0c2.7-3.7,7.9-4.6,11.7-1.9l0,0c3.7,2.7,4.6,7.9,1.9,11.7l0,0
		c-1.6,2.2-4.2,3.4-6.8,3.4l0,0C648.3,64.2,646.5,63.7,645.1,62.6z"/>
	<path fill="#0000FF" d="M784.8,52.3L784.8,52.3c-3.2-3.3-3-8.6,0.3-11.8l0,0c3.4-3.2,8.7-3,11.8,0.3l0,0c3.2,3.3,3,8.6-0.3,11.8
		l0,0c-1.6,1.5-3.7,2.3-5.7,2.3l0,0C788.6,55,786.4,54.1,784.8,52.3z"/>
	<path fill="#0000FF" d="M659.2,44.5c-3-3.6-2.5-8.8,1.1-11.8l0,0c3.5-3,8.8-2.5,11.7,1.1l0,0c3,3.5,2.5,8.8-1.1,11.8l0,0
		c-1.6,1.3-3.5,1.9-5.3,1.9l0,0C663.3,47.5,660.9,46.4,659.2,44.5z"/>
	<path fill="#0000FF" d="M768.6,39.1c-3.9-2.4-5.1-7.6-2.6-11.5l0,0c2.4-3.9,7.6-5.1,11.5-2.6l0,0c0,0,0,0,0,0l0,0
		c3.9,2.5,5.1,7.6,2.6,11.5l0,0c-1.6,2.5-4.3,3.9-7.1,3.9l0,0C771.6,40.4,770,40,768.6,39.1z"/>
	<path fill="#0000FF" d="M677.4,30.3c-2-4.2-0.2-9.1,4-11.1l0,0l0,0l0,0c4.2-2,9.1-0.2,11.1,4l0,0c2,4.2,0.2,9.1-4,11.1l0,0
		c-1.1,0.6-2.4,0.8-3.6,0.8l0,0C681.9,35.1,678.9,33.3,677.4,30.3z"/>
	<path fill="#0000FF" d="M749.7,30.3L749.7,30.3c-4.4-1.4-6.8-6.1-5.4-10.5l0,0c1.4-4.4,6.1-6.8,10.5-5.4l0,0c0,0,0,0,0,0l0,0
		c4.4,1.4,6.8,6.1,5.4,10.5l0,0c-1.1,3.5-4.4,5.8-7.9,5.8l0,0C751.4,30.6,750.6,30.5,749.7,30.3z"/>
	<path fill="#0000FF" d="M698.6,21.2c-0.9-4.5,2.1-8.9,6.6-9.8l0,0c4.5-0.9,8.9,2.1,9.8,6.6l0,0c0.9,4.5-2.1,8.9-6.6,9.8l0,0
		c-0.5,0.1-1.1,0.1-1.6,0.1l0,0C702.9,27.9,699.4,25.2,698.6,21.2z"/>
	<path fill="#0000FF" d="M729.2,26.4c-4.6-0.3-8.1-4.2-7.9-8.8l0,0c0.3-4.6,4.2-8.1,8.8-7.8l0,0c4.6,0.3,8.1,4.2,7.8,8.8l0,0
		c-0.3,4.4-3.9,7.9-8.3,7.9l0,0C729.6,26.4,729.4,26.4,729.2,26.4z"/>
	<path fill="#0000FF" d="M512,664.6c-0.3-4.6,3.2-8.6,7.8-8.9l0,0c4.6-0.3,8.6,3.2,8.8,7.8l0,0c0.3,4.6-3.2,8.6-7.8,8.9l0,0
		c-0.2,0-0.4,0-0.5,0l0,0C515.9,672.4,512.2,669,512,664.6z"/>
	<path fill="#0000FF" d="M495.8,670.8c-4.5-0.9-7.5-5.2-6.7-9.7l0,0c0.9-4.5,5.2-7.5,9.8-6.7l0,0c4.5,0.9,7.5,5.2,6.7,9.7l0,0
		c-0.8,4-4.3,6.8-8.2,6.8l0,0C496.9,671,496.3,670.9,495.8,670.8z"/>
	<path fill="#0000FF" d="M534.9,662.3c-1.4-4.4,1-9.1,5.3-10.5h0c4.4-1.4,9.1,1,10.5,5.3l0,0c1.4,4.4-1,9.1-5.4,10.5l0,0l0,0l0,0
		c-0.9,0.3-1.7,0.4-2.6,0.4l0,0C539.3,668.1,536.1,665.8,534.9,662.3z"/>
	<path fill="#0000FF" d="M472,663.1c-4.2-1.9-6-6.9-4-11.1l0,0c2-4.2,6.9-6,11.1-4l0,0c4.2,1.9,6,6.9,4,11.1l0,0
		c-1.4,3-4.4,4.8-7.6,4.8l0,0C474.3,663.9,473.1,663.7,472,663.1z"/>
	<path fill="#0000FF" d="M556.6,654.4c-2.5-3.9-1.3-9.1,2.6-11.5l0,0c3.9-2.5,9-1.3,11.5,2.6l0,0c2.5,3.9,1.3,9.1-2.5,11.5l0,0
		c-1.4,0.9-2.9,1.3-4.5,1.3l0,0C560.9,658.3,558.2,656.9,556.6,654.4z"/>
	<path fill="#0000FF" d="M450.8,649.7C450.8,649.7,450.8,649.7,450.8,649.7L450.8,649.7c-3.6-3-4.1-8.2-1.1-11.8l0,0
		c3-3.6,8.2-4.1,11.8-1.1l0,0c3.6,3,4.1,8.2,1.1,11.8l0,0c-1.7,2-4,3-6.4,3l0,0C454.2,651.6,452.4,651,450.8,649.7z"/>
	<path fill="#0000FF" d="M575.6,641.4c-3.4-3.2-3.5-8.4-0.4-11.8l0,0c3.2-3.4,8.4-3.5,11.8-0.4l0,0c3.4,3.2,3.5,8.4,0.4,11.8l0,0
		l0,0l0,0c-1.6,1.8-3.9,2.6-6.1,2.6l0,0C579.2,643.6,577.2,642.9,575.6,641.4z"/>
	<path fill="#0000FF" d="M433.6,631.5c-2.7-3.7-1.9-8.9,1.8-11.7l0,0c3.7-2.7,8.9-1.9,11.7,1.8l0,0c2.7,3.7,1.9,9-1.8,11.7l0,0
		c-1.5,1.1-3.2,1.6-4.9,1.6l0,0C437.8,634.9,435.3,633.7,433.6,631.5z"/>
	<path fill="#0000FF" d="M590.8,624c-4-2.2-5.5-7.3-3.3-11.3h0c2.2-4,7.3-5.5,11.4-3.3l0,0c4,2.2,5.5,7.3,3.3,11.3l0,0
		c-1.5,2.8-4.4,4.3-7.3,4.3l0,0C593.4,625,592.1,624.7,590.8,624z"/>
	<path fill="#0000FF" d="M421.5,609.6c-1.7-4.3,0.4-9.1,4.7-10.9l0,0c4.3-1.7,9.1,0.4,10.8,4.7l0,0c1.7,4.3-0.4,9.1-4.7,10.8l0,0
		c-1,0.4-2.1,0.6-3.1,0.6l0,0C426,614.8,422.8,612.8,421.5,609.6z"/>
	<path fill="#0000FF" d="M601.2,603.4c-4.5-1.2-7.2-5.7-6-10.2l0,0c1.1-4.5,5.7-7.2,10.2-6l0,0c4.5,1.2,7.2,5.7,6,10.2l0,0
		c-1,3.8-4.4,6.3-8.1,6.3l0,0C602.6,603.7,601.9,603.6,601.2,603.4z"/>
	<path fill="#0000FF" d="M415.2,585.3c-0.6-4.6,2.7-8.8,7.2-9.4l0,0c4.6-0.6,8.8,2.7,9.3,7.2l0,0c0.6,4.6-2.7,8.8-7.2,9.3l0,0
		c-0.4,0.1-0.7,0.1-1.1,0.1l0,0C419.4,592.6,415.8,589.5,415.2,585.3z"/>
	<path fill="#0000FF" d="M597.8,572.5c0-0.1,0-0.1,0-0.2l0,0c0-0.1,0-0.1,0-0.1l0,0c0-4.6,3.7-8.4,8.3-8.4l0,0
		c4.6,0,8.4,3.7,8.4,8.3l0,0c0,0,0,0.1,0,0.1l0,0c0,0.1,0,0.2,0,0.3l0,0c0,4.6-3.8,8.4-8.3,8.4l0,0
		C601.5,580.9,597.8,577.2,597.8,572.5z"/>
	<path fill="#0000FF" d="M422.5,569.6c-4.6-0.6-7.8-4.7-7.3-9.3l0,0c0.6-4.6,4.7-7.8,9.3-7.3l0,0c4.6,0.6,7.8,4.7,7.3,9.3l0,0
		c-0.5,4.2-4.1,7.3-8.3,7.3l0,0C423.2,569.6,422.8,569.6,422.5,569.6z"/>
	<path fill="#0000FF" d="M595.1,551.5c-1.1-4.5,1.5-9,6-10.2l0,0c4.5-1.2,9,1.5,10.2,6l0,0l0,0l0,0c1.2,4.5-1.5,9-6,10.2l0,0
		c-0.7,0.2-1.4,0.3-2.1,0.3l0,0C599.5,557.8,596.1,555.3,595.1,551.5z"/>
	<path fill="#0000FF" d="M426.1,546.8c-4.3-1.7-6.4-6.5-4.7-10.8l0,0c1.7-4.3,6.5-6.4,10.8-4.7l0,0c4.3,1.7,6.4,6.5,4.7,10.8l0,0
		c-1.3,3.3-4.4,5.3-7.8,5.3l0,0C428.1,547.4,427.1,547.2,426.1,546.8z"/>
	<path fill="#0000FF" d="M587.3,532.2c-2.2-4-0.8-9.1,3.2-11.4l0,0c4-2.2,9.1-0.8,11.4,3.2l0,0c2.2,4,0.8,9.1-3.2,11.4l0,0
		c-1.3,0.7-2.7,1.1-4,1.1l0,0C591.7,536.5,588.8,534.9,587.3,532.2z"/>
	<path fill="#0000FF" d="M435.3,525.6c-3.7-2.7-4.6-7.9-1.9-11.7l0,0c2.7-3.7,7.9-4.6,11.7-1.9l0,0c3.7,2.7,4.6,7.9,1.9,11.7l0,0
		c-1.6,2.2-4.2,3.5-6.8,3.5l0,0C438.5,527.2,436.7,526.7,435.3,525.6z"/>
	<path fill="#0000FF" d="M575,515.3L575,515.3c-3.2-3.3-3-8.6,0.3-11.8l0,0c3.4-3.2,8.7-3,11.8,0.3l0,0c3.2,3.3,3,8.6-0.3,11.8l0,0
		c-1.6,1.5-3.7,2.3-5.7,2.3l0,0C578.8,517.9,576.6,517.1,575,515.3z"/>
	<path fill="#0000FF" d="M449.4,507.4c-3-3.6-2.5-8.8,1.1-11.8l0,0c3.5-3,8.8-2.5,11.7,1.1l0,0c3,3.5,2.5,8.8-1.1,11.8l0,0
		c-1.6,1.3-3.5,1.9-5.3,1.9l0,0C453.5,510.4,451.1,509.4,449.4,507.4z"/>
	<path fill="#0000FF" d="M558.9,502.1c-3.9-2.4-5.1-7.6-2.6-11.5l0,0c2.4-3.9,7.6-5.1,11.5-2.6l0,0c0,0,0,0,0,0l0,0
		c3.9,2.5,5.1,7.6,2.6,11.5l0,0c-1.6,2.5-4.3,3.9-7.1,3.9l0,0C561.8,503.4,560.2,502.9,558.9,502.1z"/>
	<path fill="#0000FF" d="M467.6,493.3c-2-4.2-0.2-9.1,4-11.1l0,0l0,0l0,0c4.2-2,9.1-0.2,11.1,4l0,0c2,4.2,0.2,9.1-4,11.1l0,0
		c-1.1,0.6-2.4,0.8-3.6,0.8l0,0C472.1,498.1,469.1,496.3,467.6,493.3z"/>
	<path fill="#0000FF" d="M539.9,493.2L539.9,493.2c-4.4-1.4-6.8-6.1-5.4-10.5l0,0c1.4-4.4,6.1-6.8,10.5-5.4l0,0c0,0,0,0,0,0l0,0
		c4.4,1.4,6.8,6.1,5.4,10.5l0,0c-1.1,3.5-4.4,5.8-7.9,5.8l0,0C541.6,493.6,540.8,493.5,539.9,493.2z"/>
	<path fill="#0000FF" d="M488.8,484.1c-0.9-4.5,2.1-8.9,6.6-9.8l0,0c4.5-0.9,8.9,2.1,9.8,6.6l0,0c0.9,4.5-2.1,8.9-6.6,9.8l0,0
		c-0.5,0.1-1.1,0.1-1.6,0.1l0,0C493.1,490.9,489.6,488.1,488.8,484.1z"/>
	<path fill="#0000FF" d="M519.4,489.4c-4.6-0.3-8.1-4.2-7.9-8.8l0,0c0.3-4.6,4.2-8.1,8.8-7.8l0,0c4.6,0.3,8.1,4.2,7.8,8.8l0,0
		c-0.3,4.4-3.9,7.9-8.3,7.9l0,0C519.8,489.4,519.6,489.4,519.4,489.4z"/>
</g>
<g id="Color_1">
	<rect x="390.4" y="10.6" fill="#0000FF" width="17.4" height="170"/>
	<rect x="694.8" y="245.5" fill="#0000FF" width="17.4" height="190.5"/>
	<rect x="246" y="332.3" fill="#0000FF" width="17.4" height="103.7"/>
	<rect x="345.2" y="189.6" fill="#0000FF" width="106.8" height="16.9"/>
	<rect x="480.8" y="11.3" fill="#0000FF" width="106.8" height="16.9"/>
	<rect x="344.9" y="245.9" fill="#0000FF" width="106.8" height="16.9"/>
	<rect x="344.9" y="418.3" fill="#0000FF" width="106.8" height="16.9"/>
	<rect x="344.9" y="332.1" fill="#0000FF" width="76.2" height="16.9"/>
	<rect x="644.8" y="478.4" fill="#0000FF" width="106.8" height="16.9"/>
	<rect x="644.8" y="564.6" fill="#0000FF" width="76.2" height="16.9"/>
	<path fill="#1C1C1C" d="M8.7,490.8"/>
	<g>
		<path fill="#0000FF" d="M1153.5,735H1143v8h-4v8h4v14.2c0,7.5,4.5,9.8,10.1,9.8c3.1,0,5.6-0.7,7.6-1.9l0.2-7.4
			c-1.3,0.7-2.8,1.2-4.5,1.1c-2.1,0-2.9-0.4-2.9-2.5l0-13.3h6.5v-9.1l-7.1,0.7L1153.5,735z"/>
		<path fill="#0000FF" d="M1125.3,743l0,17.6c0,4.4-2.2,6.3-5.7,6.3c-3.5,0-5.6-1.8-5.6-6.2l0-17.7h-9.2l0,20.5
			c0,7.4,3.4,11.8,10.4,11.8c4.7,0,6.8-2.8,8.8-5.5v4.6l9.9,0.5l0.7-31.9H1125.3z"/>
		<path fill="#0000FF" d="M1090,733.6l-10,0v9.4h-2.4l0,7.3l3.9-0.3l0,15.2c0,7.5,3.8,9.7,9.4,9.7c3.1,0,5.3-0.8,7.3-1.9l0-7.4
			c-1.3,0.7-3.2,1.1-4.9,1.1c-2.1,0-3.3-1-3.3-3.2v-13.9l7,0v-7.9l-7,0V733.6z"/>
		<polygon fill="#0000FF" points="1062.1,742.2 1062.1,775 1071.3,775 1071.3,742.4 		"/>
		<polygon fill="#0000FF" points="1061,738.3 1071,738.3 1071,730.2 1061,730.2 		"/>
		<path fill="#0000FF" d="M1046,735h-8l0,8h-3.9l0,8h3.9l0,14.8c0,7.5,3.8,9.4,9.4,9.4c3.1,0,5.3-0.9,7.3-2l0-7.5
			c-1.3,0.7-3.5,1.1-5.2,1.1c-2.1,0-3.6-1.1-3.6-3.2V751h8v-8h-8V735z"/>
		<path fill="#0000FF" d="M1020.7,754.7c-3.5-1.2-6.6-2.1-6.6-4c0-1.3,1.2-2.2,3.4-2.2c2.4,0,5.6,1.2,8.8,3l3.5-6.4
			c-3.5-2.4-8-3.8-12.1-3.8c-6.5,0-11.9,3.7-11.9,10.4c0,6.3,5.2,8.4,9.7,9.8c3.6,1.1,6.7,1.8,6.7,3.9c0,1.5-1.2,2.4-3.9,2.4
			c-3,0-6.7-1.3-10.2-3.9l-3.9,6.1c4.3,3.4,9.4,4.9,13.9,4.9c7,0,12.4-3.3,12.4-10.6C1030.5,758.4,1025.3,756.2,1020.7,754.7z"/>
		<path fill="#0000FF" d="M987.1,741.3c-4.7,0-8.1,2.5-10.1,5.2v-4.6l-8.6,0.3L969,775h9.2l0-18.4c0-4.4,2.2-6.8,5.8-6.8
			c3.5,0,5.6,2.5,5.6,6.8l0,18.4h9.2l-0.3-21.3C998.4,746.2,994.1,741.3,987.1,741.3z"/>
		<polygon fill="#0000FF" points="950,733 950,774.9 959.4,775.1 959.4,733 		"/>
		<path fill="#0000FF" d="M916.1,734.1l-9.2,0.3l0,8.6H903l0,8h3.9l0,14.7c0,7.5,3.5,9.4,9.1,9.4c3.1,0,5-1,7-2.2v-7.4
			c-2,0.7-2.5,1.2-4.2,1.2c-2.1,0-2.8-1-2.8-3.1l-0.3-13.9l7.3,0V743h-6.9L916.1,734.1z"/>
		<path fill="#0000FF" d="M889.3,748.4l0-6.5l-9.2,0.3l0,32.8h7.9v-12.7c0-7.8,4.4-11.4,11-11.4l0.3-9.6
			C893.8,741,891.1,743.9,889.3,748.4z"/>
		<path fill="#0000FF" d="M847.7,731.6l-18.2,42.7l9.5,0l3.9-9.5l17.9,0l3.9,9.5l9.8,0l-18.2-42.7L847.7,731.6z M846.3,756.5
			l5.6-13.7l5.6,13.8L846.3,756.5z"/>
		<path fill="#0000FF" d="M791.4,741.2c-9.4,0-16,7.6-16,17c0,9.9,7.2,16.8,17,16.8c5.9,0,10.2-2.3,13.3-6.1l-5.3-4.7
			c-2.5,2.4-4.8,3.3-7.9,3.3c-4.1,0-7-2.2-7.9-6.4l22.6,0c0.1-0.9,0.1-1.7,0.1-2.4C807.2,749.6,802.2,741.2,791.4,741.2z
			 M784.4,755.5c0.7-4.2,3.2-6.9,7-6.9c3.9,0,6.3,2.8,6.8,6.9L784.4,755.5z"/>
		<path fill="#0000FF" d="M757.9,741.2c-4.7,0-7.4,2.5-9.5,5.2l0-16.3l-9.2,0l0,44.2l9.2,0l0-18.1c0-4.4,2.2-6.6,5.8-6.6
			c3.5,0,5.6,2.2,5.6,6.6l0,18.1l9.2,0l0-21C769,745.8,764.9,741.2,757.9,741.2z"/>
		<path fill="#0000FF" d="M724.8,733.5l-9.2,0l-0.4,8.3l-4.2,0v7.9l4.2,0l0.2,15.4c0,7.5,3.2,9.7,8.9,9.8c3.1,0,4.7-0.7,6.7-1.9
			v-7.4c-1,0.7-2.2,1.1-3.9,1.1c-2.1,0-2.6-1-2.6-3.1l-0.6-13.9l7.1,0v-7.9l-6.9,0L724.8,733.5z"/>
		<path fill="#0000FF" d="M686.1,737.3c1.6,0,3.2,0.3,4.5,0.8l0.2-7.6c-1.7-0.5-3.5-0.9-6.4-0.9c-3.3,0-6.4,0.8-8.1,2.5
			c-1.7,1.7-3.2,4.3-3.2,7.9v3h-2.4l0,8h3.8l0,24h9.2l0-24h6.4v-8h-8v-2.1C682,738.4,683.9,737.3,686.1,737.3z"/>
		<path fill="#0000FF" d="M648.5,774.9c10.1,0,17.6-7.6,17.6-17c0-9.3-7.5-16.8-17.5-16.8c-10.1,0-17.6,7.6-17.6,17
			C631,767.5,638.5,774.9,648.5,774.9z M648.5,749.1c5.1,0,8.5,4.2,8.5,9.1c0,4.8-3.1,8.8-8.4,8.8c-5.1,0-8.5-4.2-8.5-9.1
			C640.1,753.1,643.3,749.1,648.5,749.1z"/>
		<polygon fill="#0000FF" points="605.8,774.7 605.8,731 596.6,731 596.6,775 		"/>
		<path fill="#0000FF" d="M572,741.1c-10.1,0-17.6,7.6-17.6,17c0,9.3,7.5,16.8,17.5,16.8c10.1,0,17.6-7.6,17.6-17
			C589.5,748.6,582.1,741.1,572,741.1z M572,767c-5.1,0-8.5-4.2-8.5-9.1c0-4.8,3.1-8.8,8.4-8.8c5.1,0,8.5,4.2,8.5,9.1
			C580.4,762.9,577.3,767,572,767z"/>
		<path fill="#0000FF" d="M531.7,774.9c10.1,0,17.6-7.6,17.6-17c0-9.3-7.5-16.8-17.5-16.8c-10.1,0-17.6,7.6-17.6,17
			C514.2,767.4,521.6,774.9,531.7,774.9z M531.7,749c5.1,0,8.5,4.2,8.5,9.1c0,4.8-3.1,8.8-8.4,8.8c-5.1,0-8.5-4.2-8.5-9.1
			C523.3,753.1,526.4,749,531.7,749z"/>
		<path fill="#0000FF" d="M487.2,756c0-4.4,2.2-6.6,5.8-6.6c3.5,0,5.6,2.7,5.6,7l0,18.5h9.2l0-21.4c0-7.5-4.1-12.3-11-12.3
			c-4.7,0-7.4,2.9-9.5,5.6l0-15.9H478l0,43.7l9.2-0.3L487.2,756z"/>
		<path fill="#0000FF" d="M459.2,766.9c-5,0-8.2-4-8.2-9.1c0-4.8,3.3-8.8,7.9-8.8c3.3,0,5.3,1.4,7.4,3.6l5.6-6.1
			c-3-3.4-6.8-5.5-13-5.5c-9.9,0-17,7.6-17,17c0,9.3,7.2,16.8,16.9,16.8c6.5,0,10.1-2.5,13.3-5.9l-5.4-5.5
			C464.4,765.6,462.3,766.9,459.2,766.9z"/>
		<path fill="#0000FF" d="M420.9,766.5c-4.8,0-8.8-2-12.7-5.2l-5.5,6.6c5.1,4.5,11.6,6.8,18,6.8c9.1,0,15.6-4.7,15.6-13.3
			c0-7.4-4.8-10.5-13.4-12.7c-7.3-1.9-9.2-2.8-9.2-5.7c0-2.1,1.9-3.7,5.4-3.7s7.3,1.6,11,4.2l4.8-7c-4.3-3.5-9.6-5.4-15.7-5.4
			c-8.7,0-14.8,5.1-14.8,12.9c0,8.4,5.5,10.8,14.1,13c7.1,1.8,8.5,3,8.5,5.5C427.1,765,424.8,766.5,420.9,766.5z"/>
		<path fill="#0000FF" d="M714.3,801.7c-10.1,0-17.6,7.6-17.6,17c0,9.3,7.5,16.8,17.5,16.8c10.1,0,17.6-7.6,17.6-17
			C731.8,809.2,724.3,801.7,714.3,801.7z M714.3,827.6c-5.1,0-8.5-4.2-8.5-9.1c0-4.8,3.1-8.8,8.4-8.8c5.1,0,8.5,4.2,8.5,9.1
			C722.7,823.5,719.5,827.6,714.3,827.6z"/>
		<path fill="#0000FF" d="M680,802.3v4.2c-3-2.7-5.1-4.8-10.1-4.9c-7.4,0-14.2,5.4-14.2,15.3c0,9.6,6.9,15.1,14.5,15.1
			c4.9,0,7.9-2,10.6-5.3l0,1.6c0,5.8-3,8.8-9.3,8.8c-4.3,0-7.6-1.1-11-3l-3.1,6.9c4.1,2.2,9.1,3.4,14.4,3.4c6.3,0,11-1.3,14-4.4
			c2.7-2.7,4.1-7,4.1-12.8l-0.4-25.1L680,802.3z M673,824.5c-4.5,0-7.9-3-7.9-7.6c0-4.4,3.4-7.5,7.9-7.5c4.5,0,7.9,3.1,7.9,7.6
			C680.9,821.4,677.4,824.5,673,824.5z"/>
		<path fill="#0000FF" d="M645.9,805.6c-2.3-2.3-5.9-3.6-11-3.6c-5.5,0-9,1-12.6,2.6l2.3,7c3-1.1,5.5-1.8,9-1.8c4.6,0,7,2.1,7,5.9
			l0,0.5c-2.3-0.8-4.7-1.3-7.9-1.3c-7.7,0-13.1,3.3-13.1,10.5c0,6.4,4.8,9.9,10.9,9.9c4.5,0,6.6-1.6,9.6-4.1v4.7h9.4l0-19.4
			C649.4,812.2,648.3,808,645.9,805.6z M640,823.3c0,3.3-2.6,5.7-6.9,5.7c-3,0-4.9-1.5-4.9-4.1c0-2.9,2.2-4.5,6.1-4.5
			c2.2,0,3.6,0.5,5.6,1.2V823.3z"/>
		<path fill="#0000FF" d="M602.7,827.6c-5,0-8.2-4-8.2-9.1c0-4.8,3.3-8.8,7.9-8.8c3.3,0,5.3,1.4,7.4,3.6l5.6-6.1
			c-3-3.4-6.8-5.4-13-5.5c-9.9,0-17,7.6-17,17c0,9.3,7.2,16.8,16.9,16.8c6.5,0,10.1-2.5,13.3-5.9l-5.4-5.5
			C607.9,826.2,605.8,827.6,602.7,827.6z"/>
		<polygon fill="#0000FF" points="569.1,802.3 569.1,834.8 578.3,834.8 578.3,802.3 		"/>
		<polygon fill="#0000FF" points="568,792 568,800 578.5,800 578.5,792 		"/>
		<path fill="#0000FF" d="M549.6,801.7c-4.7,0-7.4,3.2-9.5,5.9l0-15.6h-9.2l0,43.5l9.2-0.4l0-18.3c0-4.4,2.2-6.7,5.8-6.7
			c3.5,0,5.6,2.8,5.6,7.2l0,18.7h9.2l0-21.6C560.6,806.9,556.6,801.7,549.6,801.7z"/>
		<path fill="#0000FF" d="M507.4,826.9c-7.3,0-12.3-6.1-12.3-13.4c0-7.3,5.1-13.2,12.3-13.2c4.2,0,7.6,1.8,10.8,4.8l5.9-6.8
			c-3.9-3.9-8.7-6.5-16.7-6.5c-13,0-22.1,9.9-22.1,22c0,12.2,9.3,21.8,21.8,21.8c8.2,0,13-2.9,17.4-7.6l-5.9-6
			C515.2,824.9,512.2,826.9,507.4,826.9z"/>
		<path fill="#0000FF" d="M458.6,797.8c1.6,0,3,0.3,4.3,0.8l0.1-7.6c-1.7-0.5-3.6-0.9-6.5-0.9c-3.3,0-6,0.8-7.7,2.5
			c-1.7,1.7-3.8,4.3-2.8,7.9v3.5h-3.3l0,7h3.8l0,24.2l9.2-0.2l-0.5-24.7l6.8-0.1V804h-7v-2.7C455,798.9,456.5,797.8,458.6,797.8z"/>
		<path fill="#0000FF" d="M420.8,801.6c-10.1,0-17.6,7.6-17.6,17c0,9.3,7.5,16.8,17.5,16.8c10.1,0,17.6-7.6,17.6-17
			C438.3,809.1,430.8,801.6,420.8,801.6z M420.8,827.5c-5.1,0-8.5-4.2-8.5-9.1c0-4.8,3.1-8.8,8.4-8.8c5.1,0,8.5,4.2,8.5,9.1
			C429.2,823.4,426,827.5,420.8,827.5z"/>
		<path fill="#0000FF" d="M8,859h367V492H8V859z M311.2,728.8c15.9,0,30,6.9,40.1,17.8l-15.2,15.1c-6.1-7.1-14.9-11.5-24.8-11.5
			c-18,0-32.5,14.6-32.5,32.5c0,17.9,14.6,32.5,32.5,32.5c10.8,0,20.4-5.3,26.3-13.4l15.3,15.2c-9.9,12-24.9,19.6-41.6,19.6
			c-29.8,0-53.9-24.1-53.9-53.9C257.3,752.9,281.4,728.8,311.2,728.8z M223,732h22v103h-22V732z M176.6,732l42.6,103H197l-9.7-23
			h-43.6l-9.7,23h-22.1l42.5-103H176.6z M64.2,790.1c-20.3-6.6-27.7-17.6-27.7-31.6c0-14,14-29.2,37-29.2c14.7,0,28.9,7.8,37.1,13.3
			l-11.6,15.8c-8.1-4.9-16.6-9.1-22.5-9.1c-11.3,0-18.2,3-18.2,9.9c0,4.5,0.9,7.4,27.7,16.1c20.3,6.6,27.7,17.6,27.7,31.6
			c0,14-14,29.2-37,29.2c-19.4,0-37.8-13.4-43-17.6l11.4-15.5c9.5,6.5,21.3,13.1,28.6,13.1c11.3,0,18.2-3,18.2-9.8
			C91.9,801.7,91,798.8,64.2,790.1z"/>
		<polygon fill="#0000FF" points="165.5,759.2 152,792 179.1,792 		"/>
		<path fill="#0000FF" d="M1197.3,759c0-9.2-5-17.6-15.8-17.6c-9.4,0-16,7.6-16,17c0,9.9,7.2,16.8,17,16.8c5.9,0,10.2-2.3,13.3-6
			l-5.3-4.7c-2.5,2.4-4.8,3.3-7.9,3.3c-4.1,0-7-2.2-7.9-6.4l22.6,0C1197.2,760.5,1197.3,759.7,1197.3,759z M1174.4,755.6
			c0.7-4.2,3.2-6.9,7-6.9c3.9,0,6.3,2.8,6.8,6.9L1174.4,755.6z"/>
	</g>
</g>
</svg>
