<?xml version="1.0" encoding="utf-8"?>
<!-- Generator: Adobe Illustrator 18.0.0, SVG Export Plug-In . SVG Version: 6.00 Build 0)  -->
<!DOCTYPE svg PUBLIC "-//W3C//DTD SVG 1.1//EN" "http://www.w3.org/Graphics/SVG/1.1/DTD/svg11.dtd">
<svg version="1.1" id="Layer_1" xmlns="http://www.w3.org/2000/svg" xmlns:xlink="http://www.w3.org/1999/xlink" x="0px" y="0px"
	 viewBox="0 0 119.8 62.8" enable-background="new 0 0 119.8 62.8" xml:space="preserve">
<path id="XMLID_145_" fill="#0000FF" d="M2.4,29l2.5-2.9c1.7,1.4,3.5,2.3,5.6,2.3c1.7,0,2.7-0.7,2.7-1.8v-0.1c0-1.1-0.6-1.6-3.8-2.4
	c-3.8-1-6.3-2-6.3-5.8v-0.1c0-3.4,2.8-5.7,6.6-5.7c2.8,0,5.1,0.9,7,2.4l-2.2,3.1c-1.7-1.2-3.3-1.9-4.9-1.9S7.3,17,7.3,17.9V18
	c0,1.2,0.8,1.6,4.1,2.5c3.8,1,6,2.4,6,5.7v0.1c0,3.8-2.9,5.9-6.9,5.9C7.5,32.1,4.7,31.1,2.4,29z"/>
<path id="XMLID_142_" fill="#0000FF" d="M26,12.7h3.8l8.1,19h-4.3l-1.7-4.2h-8l-1.7,4.2h-4.2L26,12.7z M30.3,23.9l-2.5-6.1l-2.5,6.1
	H30.3z"/>
<path id="XMLID_140_" fill="#0000FF" d="M39.9,12.9h4.2v18.9h-4.2V12.9z"/>
<path id="XMLID_138_" fill="#0000FF" d="M61,31c-1.3,0.7-2.9,1.1-4.9,1.1c-5.6,0-9.7-4.3-9.7-9.7v-0.1c0-5.4,4.1-9.8,9.9-9.8
	c3.6,0,5.7,1.2,7.5,2.9L61,18.5c-1.5-1.3-2.9-2.1-4.8-2.1c-3.2,0-5.5,2.6-5.5,5.9v0.1c0,3.2,2.2,5.9,5.5,5.9c2.2,0,3.5-0.9,5-2.2"/>
<path id="XMLID_134_" fill="#0000FF" d="M59.2,31.6h2.3l8.1,19h-4.3l-1.7-4.2h-8l-1.7,4.2h-2.7L59.2,31.6z M62.1,42.7l-2.5-6.1
	l-2.5,6.1H62.1z"/>
<path id="XMLID_132_" fill="#0000FF" d="M72.2,31.8h4.2v18.9h-4.2V31.8z"/>
<path id="XMLID_130_" fill="#0000FF" d="M79.2,41.3L79.2,41.3c0-5.4,4.2-9.8,9.9-9.8c3.4,0,5.5,0.9,7.4,2.6l-2.6,3.2
	c-1.5-1.2-2.8-1.9-4.9-1.9c-3,0-5.4,2.7-5.4,5.9v0.1c0,3.5,2.4,6,5.7,6c1.5,0,2.9-0.4,3.9-1.1v-2.7H89v-3.6h8.2V48
	c-1.9,1.6-4.6,3-8.1,3C83.2,51,79.2,46.9,79.2,41.3z"/>
<path id="XMLID_127_" fill="#0000FF" d="M106.6,31.6h3.8l8.1,19h-4.3l-1.7-4.2h-8l-1.7,4.2h-4.2L106.6,31.6z M111,42.7l-2.5-6.1
	l-2.5,6.1H111z"/>
<rect id="XMLID_125_" x="58.9" y="-0.7" transform="matrix(0.9223 0.3865 -0.3865 0.9223 16.8518 -20.9033)" fill="#0000FF" width="3" height="64.4"/>
</svg>
