<?xml version="1.0" encoding="utf-8"?>
<!-- Generator: Adobe Illustrator 18.1.1, SVG Export Plug-In . SVG Version: 6.00 Build 0)  -->
<svg version="1.1" id="Layer_1" xmlns="http://www.w3.org/2000/svg" xmlns:xlink="http://www.w3.org/1999/xlink" x="0px" y="0px"
	 viewBox="-1204 0 4176.1 792" enable-background="new -1204 0 4176.1 792" xml:space="preserve">
<g>
	<path id="XMLID_145_" fill="#0000FF" d="M-1137.2,274.3l17.3-20c11.7,9.7,24.2,15.9,38.7,15.9c11.7,0,18.7-4.8,18.7-12.4v-0.7
		c0-7.6-4.1-11.1-26.3-16.6c-26.3-6.9-43.5-13.8-43.5-40.1v-0.7c0-23.5,19.3-39.4,45.6-39.4c19.3,0,35.2,6.2,48.4,16.6l-15.2,21.4
		c-11.7-8.3-22.8-13.1-33.9-13.1s-15.9,6.2-15.9,12.4v0.7c0,8.3,5.5,11.1,28.3,17.3c26.3,6.9,41.5,16.6,41.5,39.4v0.7
		c0,26.3-20,40.8-47.7,40.8C-1102,295.7-1121.3,288.8-1137.2,274.3z"/>
	<path id="XMLID_142_" fill="#0000FF" d="M-974.1,161.7h26.3l56,131.3h-29.7l-11.7-29h-55.3l-11.7,29h-29L-974.1,161.7z
		 M-944.4,239.1l-17.3-42.1l-17.3,42.1H-944.4z"/>
	<path id="XMLID_140_" fill="#0000FF" d="M-878.1,163.1h29v130.6h-29V163.1z"/>
	<path id="XMLID_138_" fill="#0000FF" d="M-732.3,288.1c-9,4.8-20,7.6-33.9,7.6c-38.7,0-67-29.7-67-67V228
		c0-37.3,28.3-67.7,68.4-67.7c24.9,0,39.4,8.3,51.8,20l-19.3,21.4c-10.4-9-20-14.5-33.2-14.5c-22.1,0-38,18-38,40.8v0.7
		c0,22.1,15.2,40.8,38,40.8c15.2,0,24.2-6.2,34.5-15.2"/>
	<path id="XMLID_134_" fill="#0000FF" d="M-744.8,292.3h15.9l56,131.3h-29.7l-11.7-29h-55.3l-11.7,29H-800L-744.8,292.3z
		 M-724.7,369l-17.3-42.1l-17.3,42.1H-724.7z"/>
	<path id="XMLID_132_" fill="#0000FF" d="M-654.9,293.7h29v130.6h-29V293.7z"/>
	<path id="XMLID_130_" fill="#0000FF" d="M-606.6,359.3L-606.6,359.3c0-37.3,29-67.7,68.4-67.7c23.5,0,38,6.2,51.1,18l-18,22.1
		c-10.4-8.3-19.3-13.1-33.9-13.1c-20.7,0-37.3,18.7-37.3,40.8v0.7c0,24.2,16.6,41.5,39.4,41.5c10.4,0,20-2.8,26.9-7.6v-18.7h-29
		v-24.9h56.7v55.3c-13.1,11.1-31.8,20.7-56,20.7C-578.9,426.3-606.6,398-606.6,359.3z"/>
	<path id="XMLID_127_" fill="#0000FF" d="M-417.2,292.3h26.3l56,131.3h-29.7l-11.7-29h-55.3l-11.7,29h-29L-417.2,292.3z M-386.8,369
		l-17.3-42.1l-17.3,42.1H-386.8z"/>
	
		<rect id="XMLID_125_" x="-746.9" y="69.1" transform="matrix(-0.9223 -0.3865 0.3865 -0.9223 -1528.5869 275.7729)" fill="#0000FF" width="20.7" height="445"/>
</g>
<g>
	<path fill="#0000FF" d="M301.1,500.2c-60.3,0-120.5,0-180.8,0c0-60.3,0-120.6,0-181c60.2,0,120.4,0,180.8,0
		C301.1,379.5,301.1,439.7,301.1,500.2z M186.5,477.3c7.4,0,14.8,0,22.3,0c1.6,3.8,3.1,7.5,4.6,11c3.5,0,6.7,0,10.1,0
		c-7-16.9-13.8-33.4-20.6-49.9c-3.7,0-7.1,0-10.6,0c-6.9,16.6-13.7,33.2-20.6,50c3.6,0,6.9,0,10.2,0
		C183.4,484.7,184.9,481,186.5,477.3z M170.2,443.3c-3-1.5-5.7-3-8.5-4.1c-6.8-2.8-13.5-2.8-20.2,0.9c-9.2,5.2-9.5,17.3-1,22.9
		c4.2,2.8,9,4,13.6,5.8c2.6,1,5.4,1.8,7.2,4.2c0,1.3,0,2.6,0,4.4c-1.3,0.7-2.6,1.7-4.1,2c-3.7,0.8-7.4,0.8-10.8-1.2
		c-2.6-1.5-5.3-2.9-8.1-4.4c-1.7,2.4-3.4,4.6-5.1,6.9c3.8,3,7.8,5.2,12.1,6.8c7.2,2.6,14.2,2.5,20.6-2.1c8.8-6.2,7-17.2,0.1-21.9
		c-4-2.7-8.5-3.9-12.9-5.6c-3-1.2-6.2-1.9-8.3-4.7c-0.5-4.6,0.3-5.3,4.5-6.4c2.9-0.7,6-0.8,8.9,0.6c2.1,1,4.2,2,6.7,3.1
		C166.4,448.3,168.2,446,170.2,443.3z M288.2,445.2c-10-10.9-26.9-11.4-37.8,0c-10.2,10.6-10,27.7,2.3,38.1
		c11.5,9.7,27.6,7.5,36.5-2.9c-2.3-2.3-4.6-4.6-6.9-7c-8.3,9.3-18.9,6.7-24.2,1.5c-6.5-6.5-6.4-15.1-1.9-21.3
		c2.6-3.6,6.2-6,10.7-6.5c5.6-0.6,10.7,0.7,14.6,4.9C283.7,449.7,285.9,447.5,288.2,445.2z M227.1,438.4c0,16.8,0,33.4,0,49.9
		c3.5,0,6.7,0,9.9,0c0-16.7,0-33.3,0-49.9C233.7,438.4,230.5,438.4,227.1,438.4z"/>
	<path fill="#0000FF" d="M463.5,200.9c4.4,0,8.5,0,12.9,0c0,29.9,0,59.8,0,89.9c-4.2,0-8.5,0-12.9,0
		C463.5,260.9,463.5,231.1,463.5,200.9z"/>
	<path fill="#0000FF" d="M320.8,157.9c-4.4,0-8.6,0-13,0c0-24.7,0-49.2,0-74c4.3,0,8.5,0,13,0C320.8,108.5,320.8,133,320.8,157.9z"
		/>
	<path fill="#0000FF" d="M238.9,239.9c4.3,0,8.5,0,12.9,0c0,17,0,33.9,0,50.9c-4.2,0-8.4,0-12.9,0
		C238.9,273.9,238.9,257,238.9,239.9z"/>
	<path fill="#0000FF" d="M288.6,290.8c0-4.4,0-8.5,0-12.9c16.5,0,32.9,0,49.5,0c0,4.3,0,8.5,0,12.9
		C321.6,290.8,305.2,290.8,288.6,290.8z"/>
	<path fill="#0000FF" d="M338,213.1c-16.5,0-32.8,0-49.3,0c0-4.4,0-8.6,0-13.1c16.4,0,32.8,0,49.3,0C338,204.3,338,208.6,338,213.1z
		"/>
	<path fill="#0000FF" d="M339.1,161.7c0,4.4,0,8.5,0,12.9c-16.5,0-32.9,0-49.5,0c0-4.3,0-8.5,0-12.9
		C306.1,161.7,322.5,161.7,339.1,161.7z"/>
	<path fill="#0000FF" d="M358,96.7c0-4.3,0-8.5,0-12.9c16.3,0,32.5,0,49,0c0,4.2,0,8.4,0,12.9C390.8,96.7,374.5,96.7,358,96.7z"/>
	<path fill="#0000FF" d="M434.3,329.2c0-4.4,0-8.5,0-12.9c16.3,0,32.6,0,49,0c0,4.3,0,8.5,0,12.9
		C467.1,329.2,450.8,329.2,434.3,329.2z"/>
	<path fill="#0000FF" d="M318.9,239c0,4.4,0,8.5,0,12.9c-10.1,0-20.1,0-30.3,0c0-4.2,0-8.5,0-12.9C298.6,239,308.6,239,318.9,239z"
		/>
	<path fill="#0000FF" d="M464.3,355.2c0,3.7,0,7.1,0,10.5c0,0.7,0,1.5,0,2.4c-10.2,0-20.2,0-30.4,0c0-4.3,0-8.5,0-12.9
		C443.9,355.2,454,355.2,464.3,355.2z"/>
	<path fill="#0000FF" d="M541.6,226c7,1.8,10.6,5.5,9.8,10.2c-1.2,6.3-4.2,8.8-9.5,8.9c-5.2,0.1-8.8-2.9-9.6-8.7
		C531.6,231.5,535.1,227.7,541.6,226z"/>
	<path fill="#0000FF" d="M392.9,168.1c-0.2,5.5-4.2,9.7-9.6,9.5c-6.1-0.1-9.2-4.1-9.5-9.6c-0.3-5,4.4-9.4,9.4-9.5
		C388.2,158.4,392.9,163,392.9,168.1z"/>
	<path fill="#0000FF" d="M363.1,100.4c6.7-0.2,9.5,4.5,9.5,9.4c0,5.6-4.4,9.3-9.5,9.3c-5.2,0-9.5-3.8-9.5-9.4
		C353.6,104.9,356.4,100.1,363.1,100.4z"/>
	<path fill="#0000FF" d="M363.1,177.7c-5.6-0.3-9.3-3.9-9.6-9.6c-0.2-5,4.6-9.7,9.6-9.6c5,0.1,9.6,4.5,9.5,9.5
		C372.5,173.5,368.9,177.3,363.1,177.7z"/>
	<path fill="#0000FF" d="M462.2,99.4c-5.7,0-9-3.6-9.3-9.5c-0.2-4.9,4.2-9.2,9.5-9.2c5.1,0,9.4,4.3,9.4,9.4
		C471.8,94.4,467.9,100,462.2,99.4z"/>
	<path fill="#0000FF" d="M508.6,264.9c0,5.9-3.5,9.2-9.5,9.4c-5.3,0.2-9.3-4.4-9.3-9.5c0-5,4.7-9.5,9.5-9.4
		C504.2,255.5,509.1,259.4,508.6,264.9z"/>
	<path fill="#0000FF" d="M400.8,215.6c-5.8,0.5-9.3-4.6-9.3-9.1c0-5.6,3.6-9.5,9.4-9.6c5-0.1,9.5,3.6,9.6,9.5
		C410.6,211.1,406.9,216.2,400.8,215.6z"/>
	<path fill="#0000FF" d="M303.2,226c0.5,5.5-4.9,9.4-9.3,9.4c-5.1,0-9.4-4.3-9.4-9.4c0-4.9,3.9-9.4,9.6-9.5
		C298.5,216.4,304,221,303.2,226z"/>
	<path fill="#0000FF" d="M363.2,138.3c-6.1,0.6-9.6-4.7-9.6-9.3c0-5.5,4.1-9.3,9.4-9.4c5-0.1,9.5,3.5,9.6,9.2
		C372.7,133.6,369.4,138.7,363.2,138.3z"/>
	<path fill="#0000FF" d="M383.2,138.3c-6.1,0.5-9.5-4.8-9.5-9.2c0.1-5.9,4.2-9.5,9.6-9.5c5.3,0,9.5,3.9,9.4,9.4
		C392.8,134.1,389.3,138.7,383.2,138.3z"/>
	<path fill="#0000FF" d="M448.5,400.8c0.6,5.5-4.9,9.4-9.3,9.4c-5.1,0-9.4-4.3-9.5-9.4c0-4.9,3.9-9.5,9.6-9.5
		C443.8,391.2,449.3,395.8,448.5,400.8z"/>
	<path fill="#0000FF" d="M448.5,342.4c0.3,5.1-4.3,9.3-9.5,9.2c-5-0.1-9.3-4.3-9.3-9.6c0.1-4.6,3.8-9.6,9.8-9.3
		C444.9,333.1,448.5,336.7,448.5,342.4z"/>
	<path fill="#0000FF" d="M332.2,360.4c-4.9,0.7-9.5-4.2-9.4-9.5c0.1-5.3,5-9.3,9.6-9.3c4.4,0,9.5,4.7,9.3,9.6
		C341.5,356,337.8,360.9,332.2,360.4z"/>
	<path fill="#0000FF" d="M322.9,372.2c-0.7-5,4.3-9.6,9.4-9.5c5.3,0.2,9.2,4.5,9.4,9.5c0.1,4.6-4.8,9.6-9.5,9.4
		C327.9,381.6,322.4,377.8,322.9,372.2z"/>
	<path fill="#0000FF" d="M342,381.6c5.5-0.3,9.4,4.2,9.6,9.4c0.1,4.1-4,9.7-9.8,9.4c-3.9-0.2-9.2-3.2-9.3-9.1
		C332.3,385.8,336.4,381.2,342,381.6z"/>
	<path fill="#0000FF" d="M409.6,391c0,5.6-3.7,9.2-9.2,9.4c-5.1,0.2-9.6-4.1-9.5-9.4c0.1-5.6,4.3-9.5,9.6-9.3
		C406.1,381.7,409.6,385.2,409.6,391z"/>
	<path fill="#0000FF" d="M342,341.7c-5.4,0.5-9.6-4.3-9.5-9.2c0.1-6.4,5.1-9.4,9.5-9.6c5.5-0.2,9.6,5.3,9.5,9.4
		C351.4,337.5,347.5,342,342,341.7z"/>
	<path fill="#0000FF" d="M410.1,360.4c-5.1,0.6-9.3-4.2-9.4-9.3c0-5.1,4.3-9.4,9.4-9.5c5.1,0,9.7,4.3,9.5,9.9
		C419.3,356.8,415.6,360.4,410.1,360.4z"/>
	<path fill="#0000FF" d="M419.5,372.2c0.3,5.2-4.3,9.6-9.5,9.5c-5-0.1-9.3-4.3-9.3-9.6c0.1-4.6,3.8-9.6,9.7-9.3
		C415.8,363.2,419.5,366.7,419.5,372.2z"/>
	<path fill="#0000FF" d="M492.4,168.2c0.4,6.3-4.6,9.5-9.2,9.5c-5.9,0-9.5-4.5-9.6-9.6c0-5.2,4.4-9.8,9.4-9.5
		C488,158.9,492.8,162.1,492.4,168.2z"/>
	<path fill="#0000FF" d="M471.7,168.1c0,5.1-3.7,9.5-9.6,9.6c-4.8,0-9-3.9-9.2-9.3c-0.3-5.3,4.7-9.8,9.2-9.8
		C467.6,158.7,471.4,162.3,471.7,168.1z"/>
	<path fill="#0000FF" d="M409.6,332.5c0,5.7-3.6,9.2-9.3,9.3c-5.1,0.1-9.3-3.7-9.4-9.3c-0.1-5.5,5-9.7,9.3-9.5
		C406,323.2,409.6,326.7,409.6,332.5z"/>
	<path fill="#0000FF" d="M424.4,118.6c-0.4-5.4,4.4-9.4,9.3-9.4c5.1,0,9.5,4.3,9.5,9.3c0,4.8-3.7,9.5-9.8,9.5
		C429,128,423.8,123.7,424.4,118.6z"/>
	<path fill="#0000FF" d="M520.9,118.7c0.6,4.9-4.5,9.4-9.1,9.4c-6,0-9.7-4.6-9.7-9.4c0.1-5.6,3.9-9.4,9.5-9.5
		C516.5,109.1,521.4,113.2,520.9,118.7z"/>
	<path fill="#0000FF" d="M424.4,139.5c-0.5-4.8,3.6-9.5,9.3-9.4c5.7,0.1,9.1,3.6,9.4,9.7c0.3,5.2-5.2,9.5-9.4,9.3
		C428.4,148.9,424.2,145.4,424.4,139.5z"/>
	<path fill="#0000FF" d="M443.5,90.5c5.2-0.2,9.5,3.8,9.5,9.5c0,4.2-4.1,9.5-9.4,9.3c-5.9-0.3-9.4-3.8-9.3-10.3
		C434.3,94,438,90.5,443.5,90.5z"/>
	<path fill="#0000FF" d="M492.4,90.2c0.7,4.9-4.3,9.6-9.3,9.3c-5.1-0.3-9.4-3.8-9.4-9.4c0-5.3,4.6-9.5,9.4-9.5
		C487.9,80.7,493,84.7,492.4,90.2z"/>
	<path fill="#0000FF" d="M520.9,139.5c0.3,5.6-4.1,9.5-9.3,9.7c-4.2,0.1-9.7-4.1-9.4-9.3c0.3-5.7,3.5-9.6,9.4-9.7
		C517.2,130,521.4,134.6,520.9,139.5z"/>
	<path fill="#0000FF" d="M511.1,99.8c0.7,5.3-4.4,9.4-9.4,9.5c-5.2,0.1-9.4-5.2-9.3-9.4c0-5.6,4.3-9.4,9.8-9.5
		C506.5,90.3,512.1,95,511.1,99.8z"/>
	<path fill="#0000FF" d="M295.2,100.4c5.7,0,8.9,3.5,9.1,9.4c0.2,4.8-4.1,9.4-9.4,9.3c-4,0-9.5-3.5-9.4-9.5
		C285.5,105,289.3,99.7,295.2,100.4z"/>
	<path fill="#0000FF" d="M360.5,331.9c-5.7,0-8.8-3.5-9.1-9.5c-0.2-5.4,4.9-9.4,9.2-9.3c5.3,0.1,9.5,4.4,9.6,9.6
		C370.3,327.2,366.5,332.6,360.5,331.9z"/>
	<path fill="#0000FF" d="M360.6,391.5c5.8-0.7,9.7,4.6,9.6,9.2c-0.1,5.2-4.4,9.4-9.7,9.5c-4.2,0.1-9.4-3.8-9.1-9.4
		C351.7,394.9,354.9,391.5,360.6,391.5z"/>
	<path fill="#0000FF" d="M511.1,158.3c0.7,5.6-4.4,9.6-9,9.6c-5.3,0-9.8-4.3-9.7-9.5c0.1-5,3.9-9.5,9.4-9.3
		C507.6,149.3,511.1,152.5,511.1,158.3z"/>
	<path fill="#0000FF" d="M410.6,159c0.7,5-4.3,9.6-9.5,9.4c-5.3-0.2-9.4-4.5-9.3-9.3c0.1-5.3,4.4-9.5,9.7-9.5
		C406.3,149.6,411,153.5,410.6,159z"/>
	<path fill="#0000FF" d="M264.8,215.6c-5,0.7-9.5-4.3-9.5-9.4c0.1-5.5,5-9.4,9.2-9.3c5.3,0.1,9.6,4.3,9.7,9.6
		C274.3,211.3,270.1,216.3,264.8,215.6z"/>
	<path fill="#0000FF" d="M434.3,158.2c0-5.7,3.5-8.9,9.4-9.1c5.4-0.2,9.3,4.3,9.3,9.4c0,5-4.4,9.3-9.5,9.4
		C438.9,168,433.6,164.1,434.3,158.2z"/>
	<path fill="#0000FF" d="M381.8,331.9c-5.8,0.5-9.6-4.5-9.6-9c0-5.4,4.3-9.6,9.7-9.7c4.1-0.1,9.3,3.8,9.1,9.4
		C390.7,328.4,387.5,331.9,381.8,331.9z"/>
	<path fill="#0000FF" d="M382,391.5c5.6,0,8.7,3.6,9,9.5c0.2,5.4-4.9,9.4-9.2,9.2c-5.2-0.2-9.5-4.4-9.5-9.7
		C372.1,396.1,375.8,390.9,382,391.5z"/>
	<path fill="#0000FF" d="M401.3,128.9c5-0.7,9.5,4.3,9.4,9.5c-0.1,5.4-5,9.4-9.3,9.3c-5.3-0.2-9.5-4.4-9.5-9.7
		C391.9,133.3,395.8,128.5,401.3,128.9z"/>
	<path fill="#0000FF" d="M518.5,216.2c0,5.4-3.9,9.3-9.3,9.3c-5.7,0-9.3-3.8-9.4-9.5c-0.1-5,4.3-9.3,9.5-9.3
		C514.2,206.7,518.8,211,518.5,216.2z"/>
	<path fill="#0000FF" d="M303.2,265.2c0.5,4.5-4.4,9.3-9.3,9.2c-5.9-0.2-9.5-4.7-9.4-9.3c0.1-5.6,4.1-9.5,9.7-9.5
		C299,255.5,303.6,259.8,303.2,265.2z"/>
	<path fill="#0000FF" d="M255,216.6c5.4-0.4,9.3,4.4,9.4,9.3c0.1,5-4.1,9.5-9.5,9.5c-5.4,0-9.4-5.1-9.3-9.5
		C245.7,221,249.5,216.2,255,216.6z"/>
	<path fill="#0000FF" d="M542,265.4c4.2-0.5,9.5,3.5,9.3,9.2c-0.1,6.4-4.6,9.5-9.6,9.5c-5.2-0.1-9.2-3.7-9.4-9
		C532.2,269.6,536.5,264.9,542,265.4z"/>
	<path fill="#0000FF" d="M509.1,275.2c5.2-0.6,9.4,4.3,9.5,9.5c0.1,5.1-5.3,9.3-9.5,9.2c-4.2-0.1-9.5-3.7-9.4-9.7
		C499.7,280.1,503.9,274.5,509.1,275.2z"/>
	<path fill="#0000FF" d="M400.9,274.2c-4.9,0.4-9.5-3.8-9.3-9.4c0.2-5.9,4.1-9.3,9.5-9.3c5.4,0,9.4,4,9.4,9.4
		C410.5,270,406.2,274.8,400.9,274.2z"/>
	<path fill="#0000FF" d="M580.7,264.4c-5.6,0-8.9-3.5-9.1-9.2c-0.2-6.3,4.7-9.5,9.2-9.5c5.9,0.1,9.5,4,9.4,9.4
		C590.2,259.9,587.4,264.7,580.7,264.4z"/>
	<path fill="#0000FF" d="M541.9,225.5c-5.3,0.5-9.5-4.2-9.6-9c0-5.4,3.4-9.5,9.4-9.7c4.4-0.1,9.3,2.8,9.6,9.3
		C551.5,221.2,547.2,225.5,541.9,225.5z"/>
	<path fill="#0000FF" d="M498.8,206.5c0,5.8-3.5,9-9.4,9.1c-5.8,0.1-9.3-4.2-9.2-9.4c0-5.6,4.3-9.2,9.3-9.3
		C494.4,196.9,499.3,200.7,498.8,206.5z"/>
	<path fill="#0000FF" d="M382,225.9c-0.8-4.9,4.6-9.6,9.2-9.4c5.2,0.3,9.5,3.9,9.5,9.6c0,5-4.5,9.2-9.7,9.3
		C386.9,235.4,381.5,231.5,382,225.9z"/>
	<path fill="#0000FF" d="M216.6,206.5c-0.5-5.8,4.3-9.7,9.3-9.6c5,0.1,9.3,3.6,9.3,9.3c0.1,5.1-3.4,9.6-9.5,9.4
		C220.1,215.5,216.6,212.1,216.6,206.5z"/>
	<path fill="#0000FF" d="M489.6,254.5c-6.3,0.4-9.5-4.5-9.5-9.1c-0.1-5.5,4-9.6,9.3-9.5c4.8,0,9.4,2.8,9.5,9.7
		C499,250.1,494.5,255.4,489.6,254.5z"/>
	<path fill="#0000FF" d="M420,226c0.6,5.1-4.1,9.4-9.1,9.3c-5-0.1-9.6-3.6-9.6-9.6c0-4.5,3.5-9.2,9.6-9.3
		C415.6,216.4,420.7,220.9,420,226z"/>
	<path fill="#0000FF" d="M439.1,390.5c-5.3,0.4-9.3-4.3-9.2-9.2c0.1-5.2,4.4-9.7,9.4-9.5c5.4,0.2,9.3,3.8,9.4,9.6
		C448.7,385.6,444.5,391.3,439.1,390.5z"/>
	<path fill="#0000FF" d="M381.1,264.9c0.8,5-4.7,9.6-9.2,9.4c-5.2-0.2-9.5-3.9-9.5-9.6c0-5,4.5-9.2,9.7-9.3
		C376.2,255.4,381.6,259.3,381.1,264.9z"/>
	<path fill="#0000FF" d="M421,264.9c-0.5-5.6,4.9-9.4,9-9.4c6,0,9.7,5,9.7,9.5c-0.1,5.6-4.4,9.3-9.7,9.3
		C425.5,274.4,420.3,269.9,421,264.9z"/>
	<path fill="#0000FF" d="M371.2,284.4c0.7,5.6-4.1,9.6-9.1,9.5c-5.8-0.1-9.5-3.8-9.6-9.3c-0.1-4.8,3.3-9.7,9.5-9.4
		C367.7,275.4,371.2,278.7,371.2,284.4z"/>
	<path fill="#0000FF" d="M561.5,275.2c4.8-0.6,9.2,4.1,9.2,9.5c0,5.4-5,9.1-9.4,9.3c-4.2,0.1-9.7-4.1-9.5-9.5
		C552.1,279.7,555.9,274.5,561.5,275.2z"/>
	<path fill="#0000FF" d="M561.2,215.6c-5.3,0.4-9.2-4.4-9.3-9.4c-0.1-5.2,5.2-9.4,9.4-9.3c5.3,0,9.5,4.6,9.5,9.3
		C570.7,211.2,566.6,216.3,561.2,215.6z"/>
	<path fill="#0000FF" d="M430.8,284.2c0-5.7,3.5-8.9,9.5-9c5.8-0.1,9.1,4.3,9.1,9.3c0,5.3-3.5,9.2-9.4,9.4
		C435.3,294.1,430.3,290.3,430.8,284.2z"/>
	<path fill="#0000FF" d="M244.6,225.7c0.7,5.8-4.6,9.8-9.2,9.6c-5.3-0.2-9.4-4-9.4-9.5c0-4.9,4.3-9.6,9.5-9.3
		C241.1,216.8,244.6,220.1,244.6,225.7z"/>
	<path fill="#0000FF" d="M381.6,254.5c-5.6,0-9.2-3.7-9.5-9.1c-0.2-5.2,4.4-9.5,9.3-9.5c5.8,0,9.7,5.3,9.5,9.4
		C390.7,250.8,387.2,254.5,381.6,254.5z"/>
	<path fill="#0000FF" d="M571.7,216.1c-0.6-5.1,4.2-9.4,9.3-9.4c4.4,0,9.3,3.8,9.3,9.4c0,4.9-4.2,9.8-9.7,9.5
		C575.3,225.2,571.7,221.6,571.7,216.1z"/>
	<path fill="#0000FF" d="M561.3,254.5c-5.5,0-9.3-3.7-9.3-9c0-5.1,3.6-9.5,9.3-9.6c4.9-0.1,9.8,4.2,9.5,9.7
		C570.5,250.8,566.8,254.5,561.3,254.5z"/>
	<path fill="#0000FF" d="M420.4,254.5c-5.5,0-9.3-3.7-9.3-9.1c0-5.2,3.7-9.5,9.3-9.6c4.9-0.1,9.7,4.2,9.4,9.7
		C429.6,250.9,426,254.5,420.4,254.5z"/>
	<path fill="#0000FF" d="M571.7,274.6c0-5.5,3.7-9,9.1-9.3c5.3-0.3,9.6,4.4,9.5,9.3c0,5.6-4.2,9.3-9.5,9.4
		C576.1,284.2,571,280.1,571.7,274.6z"/>
	<path fill="#0000FF" d="M509.2,226.5c5.1-0.6,9.4,4.2,9.3,9.1c-0.1,5.2-3.7,9.5-9.4,9.6c-4.9,0.1-9.7-4.2-9.4-9.7
		C500,230.1,503.6,226.5,509.2,226.5z"/>
	<path fill="#0000FF" d="M453.7,492.4c-4.5,2.4-9.2,2.2-14.1-0.2c0.6-1.3,1.1-2.5,1.6-3.6c7.2,1.9,9.4,1.4,9.7-1.7
		c-1.9,0.3-3.8,0.8-5.8,0.8c-2.3,0.1-3.9-1.4-5-3.1c-2-3.1-1.8-6.9,0.7-10c2.2-2.7,6.1-3,8.9-1.5c2.5-0.2,4.2-0.3,6.3-0.5
		c0,1.8,0,3.4,0,4.9c0,2.7-0.1,5.4,0,8.1C456,488,455.7,490.2,453.7,492.4z M450.9,481.3c0.1-3-0.6-4.1-2.4-4.6
		c-1.8-0.4-3.6,0.5-4.2,2c-0.6,1.8,0,3.4,1.6,4.4C447.5,484.1,448.8,483.6,450.9,481.3z"/>
	<path fill="#0000FF" d="M547.2,459.3c-2,0-3.6,0-5.4,0c-0.7-1.5-1.4-3.1-2.2-4.7c-2.7,0-5.4,0-8,0c-0.7,1.6-1.4,3.1-2.1,4.7
		c-1.6,0-3.2,0-5.3,0c3.1-7.3,6.1-14.4,9.1-21.5c1.6,0,3,0,4.7,0C541.1,444.8,544.1,451.9,547.2,459.3z M533.5,449.9
		c1.6,0,2.8,0,4.4,0c-0.8-1.9-1.4-3.5-2.3-5.5C534.8,446.5,534.2,448.1,533.5,449.9z"/>
	<path fill="#0000FF" d="M325,454.7c0.2-0.2,0.7-0.7,1.2-1.2c-0.5-1.8-1.9-2-3.2-2.5c-1.5-0.5-3.1-0.9-4.6-1.5
		c-3.1-1.5-4.1-3.7-3.3-7c0.6-2.6,3.2-4.7,6-4.8c3.4-0.1,6.7-0.1,9.5,2.8c-0.8,1.2-1.7,2.4-2.5,3.6c-2.7-0.7-5.3-3.6-8.3-0.7
		c0.7,1.4,1.6,2.1,3.1,2.3c1.3,0.2,2.4,1,3.7,1.2c3.2,0.6,4.9,3.6,4.6,6.3c-0.3,3.2-2.1,5.6-5.3,6c-4.3,0.6-8.4,0-12-3.2
		c1-1.2,1.9-2.4,3-3.7C319.4,453.6,321.6,455.7,325,454.7z"/>
	<path fill="#0000FF" d="M371.3,482.3c1.2,1.1,2.3,2.1,3.3,3c-2.3,3.3-7.4,4.9-11.4,3.8c-5.9-1.5-8.1-6-8.3-9.3
		c-0.5-6.6,2.5-10.1,7.2-12c3.8-1.5,10.6-0.4,12.4,3.1c-0.9,1-1.8,2-2.9,3.3c-0.7-0.4-1.5-0.8-2.2-1.2c-2.9-1.7-6.4-0.9-8,1.6
		c-2.1,3.4-0.9,7.5,1.7,9.2c1.9,1.2,4.1,1,6.1,0C370,483.4,370.7,482.8,371.3,482.3z"/>
	<path fill="#0000FF" d="M377.3,488.8c0-7.3,0-14.5,0-21.8c1.7,0,3.3,0,5.2,0c0,2.2,0,4.2,0,5.8c2.4,0,4.5-0.3,6.6,0
		c1.9,0.3,3.2,1.9,3.3,3.8c0.2,4,0.1,8,0.1,12.2c-1.6,0-3.1,0-4.6,0c-1-3.7,0.8-7.8-1.1-11.4c-1.7-0.4-3.1-0.5-4.1,1.4
		c0,3.1,0,6.5,0,10C380.7,488.8,379.1,488.8,377.3,488.8z"/>
	<path fill="#0000FF" d="M361.4,459.3c0-3.6,0-6.9,0-10.5c-0.6-0.4-1.3-0.9-2.1-1.5c-2.2,0.1-2.9,0.6-2.9,2.9c-0.1,2.9,0,5.9,0,9
		c-1.6,0-3.1,0-4.8,0c0-7.4,0-14.7,0-22.3c1.5,0,2.9,0,4.6,0c0,2.2,0,4.5,0,6.4c2.1-0.2,4-0.6,5.9-0.6c1.9,0,3.9,1.8,4,3.7
		c0.1,4.2,0,8.5,0,12.9C364.6,459.3,363.2,459.3,361.4,459.3z"/>
	<path fill="#0000FF" d="M494.8,459.3c-1.7,0-3.1,0-4.9,0c0-3,0-6,0-9c0-2.4-0.5-2.9-3.4-3.2c-0.4,0.4-0.9,1.1-1.5,1.9
		c0,1.5,0,3.2,0,4.9c0,1.7,0,3.4,0,5.3c-1.7,0-3.1,0-4.7,0c0-7.3,0-14.5,0-21.9c1.5,0,3,0,4.6,0c0,2.1,0,4.1,0,6
		c2.1-0.3,3.9-0.7,5.8-0.7c2.2,0,4.1,1.9,4.1,4C494.9,450.8,494.8,454.9,494.8,459.3z"/>
	<path fill="#0000FF" d="M476.6,480.9c0.4,4.9-3.8,8.7-9,8.6c-4.8-0.1-8.8-3.8-8.7-8.4c0.2-5.7,3.7-8.7,9-8.8
		C472.7,472.2,476.9,475.4,476.6,480.9z M463.8,480.9c1.1,3,2.5,4.3,4.5,4.1c1.8-0.2,3.2-1.7,3.4-3.6c0.2-2.3-1.1-3.9-4-4.8
		C465.4,477.1,464.3,478.6,463.8,480.9z"/>
	<path fill="#0000FF" d="M377.7,459.4c-5.3,0-8.4-3.2-8.4-8.5c0-5.2,3.3-8,9-8.3c5.3-0.2,8.7,3.9,8.7,8.4
		C387,455.1,383.7,460,377.7,459.4z M376.3,447.2c-3.1,3-3,5,0.2,7.7c3.8,0.2,4,0.1,5.5-3.6C380.6,447.1,380.5,447,376.3,447.2z"/>
	<path fill="#0000FF" d="M435.4,459.4c-5.5,0-8.5-3-8.5-8.5c0-5.2,3.3-8.1,8.9-8.3c4.9-0.2,8.7,3.7,8.7,8.4
		C444.6,455.5,440.9,460,435.4,459.4z M437.1,447.2c-1.3,0-2.3,0-2.9,0c-1,0.8-1.7,1.4-2.3,2c0,1.4,0,2.5,0,3.6
		c0.7,0.8,1.4,1.5,1.9,2.1c4.8,0.3,6.1-1.1,5.2-5.7C438.3,448.5,437.7,447.8,437.1,447.2z"/>
	<path fill="#0000FF" d="M695.3,453.6c0.6,0.6,1.2,1.2,2,2.2c1.7-0.5,3.4-1,5.6-1.6c0.5,0.5,1.4,1.3,2.2,2.1
		c-2.4,3.5-7,4.6-10.8,2.7c-4.3-2.1-5.4-6.9-3.9-11.3c1.2-3.7,5.9-5.9,9.9-4.9c3.7,0.9,6.2,5.2,5.7,10.2c-3.4,0-6.9,0-10.4,0
		C695.5,453.2,695.4,453.4,695.3,453.6z M697.7,446.4c-0.9,0.9-1.8,1.7-2.8,2.6c0.1,0.1,0.3,0.3,0.4,0.4c1.7,0,3.5,0,5.3,0
		C700.7,447.4,699.2,447.2,697.7,446.4z"/>
	<path fill="#0000FF" d="M397.8,442.7c5.1-0.6,9,4.3,8.9,8.4c-0.1,4.2-3.8,8.6-9,8.5c-5.2-0.1-8.9-4-8.9-8.5
		C388.8,447,392.6,442,397.8,442.7z M399.5,454.9c2.3-2.1,2.6-3.1,1.8-5c-1.1-2.6-1.6-2.9-5.3-2.6c-1.8,1.3-2.8,3-2,5.2
		C394.8,454.4,396.6,455.4,399.5,454.9z"/>
	<path fill="#0000FF" d="M314.6,480.9c-0.6-5.4,4.7-8.8,8.7-8.7c4.2,0.1,9.1,2.9,9,8.6c-0.1,4.7-3.3,8.5-9,8.7
		C318.4,489.6,314.2,485.9,314.6,480.9z M327.4,480.8c-1.1-3.1-2.7-4.5-4.7-4.1c-1.9,0.3-3.2,2-3.2,4.3c0,2.1,1.3,3.7,3.2,4
		C324.7,485.3,326.3,484,327.4,480.8z"/>
	<path fill="#0000FF" d="M513.2,456.3c-2.5,3.2-8,4.3-11.4,2.4c-3.9-2.2-4.9-7.2-3.3-11.4c1.4-3.6,6-5.5,10-4.4
		c3.2,0.8,6.2,5.6,5.3,10.2c-1.7,0-3.5,0-5.2,0c-1.7,0-3.4,0-5.2,0c1.3,2.9,3.3,3.2,7.1,0.9C511.3,454.6,512.2,455.4,513.2,456.3z
		 M502.8,449c0.1,0.1,0.2,0.2,0.3,0.4c1.8,0,3.6,0,5.4,0c-0.1-2-1.5-2.3-3.1-2.9C504.7,447.3,503.7,448.1,502.8,449z"/>
	<path fill="#0000FF" d="M436.2,489.1c-2-0.2-3.7-0.3-6-0.5c-1.4,0.8-3.5,1.3-5.8,0.4c-2.4-1-3.7-2.9-3.4-5.5
		c0.3-2.7,1.8-4.2,4.6-4.4c1.9-0.1,3.7,0,5.6,0c0.1-0.3,0.2-0.5,0.2-0.8c-1.1-0.6-2.2-1.2-3.2-1.8c-1.6,0.4-2.9,0.7-4.5,1.1
		c-0.5-1.2-0.9-2.4-1.4-3.7c2.3-1.5,4.7-1.5,7-1.7c0.8-0.1,1.6,0.3,2.4,0.4c2.5,0.6,4.3,2.4,4.5,5.1
		C436.4,481.5,436.2,485.1,436.2,489.1z M425.8,483.5c0.3,0.6,0.6,1.3,0.8,1.9c3.8,0.2,4.1,0,4.5-2.5
		C428.9,481.6,428,481.7,425.8,483.5z"/>
	<path fill="#0000FF" d="M598,442.8c0.2,0.3,0.3,0.6,0.3,0.6c1.7-0.3,3.3-0.6,4.8-0.8c3.2-0.4,4.7,2.1,4.9,4.3c0.3,4,0.1,8,0.1,12.2
		c-1.6,0-3,0-4.8,0c0-3.4,0-6.9,0-10.5c-1.1-0.7-2-1.3-3.1-2c-0.8,0.9-1.4,1.5-2,2.1c0,3.4,0,6.9,0,10.4c-1.6,0-3.1,0-4.6,0
		c-1.4-5.4-0.3-10.9-0.8-16.4C594.7,442.8,596.3,442.8,598,442.8z"/>
	<path fill="#0000FF" d="M659.9,442.8c1.7,0,3.1,0,4.9,0c0,2.1-0.1,4.1,0,6.2c0,1.2,0.3,2.4,0.4,3.6c0.1,2.1,1.3,2.6,3.5,2.3
		c3.1-3.4,0.5-7.9,1.8-12c1.3,0,2.7,0,4.4,0c0,5.4,0,10.8,0,16.4c-1.5,0-2.9,0-4.4,0c-0.2-0.3-0.3-0.6-0.3-0.6
		c-2.4,0.3-4.6,0.6-6.3,0.9c-2.7-1.2-3.8-3-3.9-5.1C659.7,450.6,659.9,446.8,659.9,442.8z"/>
	<path fill="#0000FF" d="M623.6,444.8c-0.6,1.2-1.2,2.3-1.7,3.2c-2.1-0.1-3.7-2.3-6.3-0.3c1.9,0.8,3.4,1.3,4.9,1.9
		c1.8,0.7,3.1,1.8,3.4,3.8c0.3,1.9-0.1,3.8-1.8,5c-0.3,0.2-0.5,0.4-0.8,0.5c-2.4,0.8-8.3,1.1-10.8-2.3c0.6-1,1.4-2,2.1-3.1
		c2.1,1.3,4.1,2.7,7.1,1.2c-1-0.5-1.6-1-2.2-1.2c-1-0.4-2.2-0.7-3.2-1.2c-2.5-1.2-3.5-3-3.1-5.2c0.5-2.4,2.4-4.2,4.8-4.4
		C618.6,442.4,621.1,442.8,623.6,444.8z"/>
	<path fill="#0000FF" d="M348.7,445.7c-1.1,0.9-2.2,1.8-3.3,2.8c-0.4-0.4-1-0.8-2-1.6c-1.1,0.3-2.8,0.4-3.9,1.3
		c-1.4,1.2-1.3,3.2-0.6,4.9c0.9,2.2,2.8,1.9,4.5,1.9c0.9-0.5,1.7-1,2.8-1.6c0.8,1,1.5,2,2.3,3c-1.3,2.6-4.7,3.9-8.9,3
		c-4-0.9-6-3.7-6.4-7.8c-0.4-3.7,2.3-7.5,5.8-8.5C343.2,441.7,346.8,442.7,348.7,445.7z"/>
	<path fill="#0000FF" d="M419.6,475.3c-1.2,1.1-2.2,2.1-3.1,3c-1.4-0.7-2.7-1.3-3.8-1.8c-3.2,1.6-4.3,3.8-3.3,6.1
		c1.1,2.5,2.9,2.8,7.3,1c0.8,0.9,1.7,1.9,2.6,2.9c-3.2,4.1-9.1,3.8-12.5,0.9c-3.7-3.1-3.7-9.2-0.5-12.5
		C409.8,471.4,415.5,471,419.6,475.3z"/>
	<path fill="#0000FF" d="M335.8,477.5c-0.8-0.3-1.4-0.5-2-0.7c0-1.3,0-2.5,0-3.8c0.6-0.2,1.2-0.4,1.5-0.5c0.4-1.4,0.7-2.6,1.1-3.7
		c0.5-1.4,1.6-2,3-2c1.5,0,3.1,0,4.9,0c0,1.5,0,2.8,0,4.4c-0.8-0.1-1.5-0.2-2.7-0.3c-0.2,0.2-0.6,0.7-1.5,1.6
		c1.7,0.2,2.9,0.3,4.2,0.4c0,1.3,0,2.6,0,4.1c-1.2,0.1-2.3,0.2-3.7,0.3c0,3.8,0,7.6,0,11.5c-1.8,0-3.2,0-4.9,0
		C335.8,485,335.8,481.3,335.8,477.5z"/>
	<path fill="#0000FF" d="M562.3,447.6c-0.6-0.4-1-0.7-1.4-0.9c0-1.2,0-2.2,0-3.5c0.4-0.3,0.9-0.7,1.4-1c0.1-1.1,0.1-2.1,0.2-3.3
		c1.7,0,3.4,0,5.2,0c0.1,1.2,0.2,2.3,0.3,3.5c1,0.1,2,0.2,3.1,0.4c0,1.3,0,2.6,0,4.1c-1,0.1-2,0.2-3.1,0.3c0,2.5,0,4.9,0,7.7
		c1-0.1,2-0.1,3.1-0.2c0,1.2,0,2.5,0,3.9c-2,1.2-4.2,1-6.3,0.4c-2.1-0.7-2.2-2.8-2.4-4.7C562.2,452.2,562.3,450,562.3,447.6z"/>
	<path fill="#0000FF" d="M448.1,447.4c-0.7-0.2-1.3-0.4-1.9-0.6c0-1.1,0-2.1,0-3.3c0.5-0.2,1-0.4,1.7-0.7c-0.1-5.8,3.3-6.7,8.3-5.8
		c0.1,1.4,0.1,2.7,0.2,4.2c-1.3,0.3-3.2-0.8-3.5,1.7c1.1,0.1,2.1,0.3,3.3,0.4c0,1.1,0,2.2,0,3.6c-0.9,0.1-1.9,0.2-3.2,0.4
		c0,3.9,0,7.8,0,11.9c-1.7,0-3.2,0-5,0C448.1,455.2,448.1,451.4,448.1,447.4z"/>
	<path fill="#0000FF" d="M653.3,438.9c0.1,1.2,0.2,2.3,0.2,3.6c1.2,0.1,2.3,0.2,3.7,0.3c0,1.4,0,2.6,0,4.1c-1.2,0.1-2.3,0.2-3.6,0.3
		c0,2.5,0,4.8,0,7.4c1.3,0,2.4,0,3.7,0c0,1.3,0,2.6,0,4.4c-2.1,0.2-4.2,0.3-6.3,0.5c-4.4-3.4-1.4-8.2-2.7-12.2
		c-0.4-0.2-1-0.4-1.6-0.6c0-1.3,0-2.5,0-3.8c0.6-0.2,1.1-0.3,1.7-0.5c0.1-1.1,0.2-2.2,0.3-3.5C650.2,438.9,651.6,438.9,653.3,438.9z
		"/>
	<path fill="#0000FF" d="M477,442.8c0,1.5,0,2.7,0,4.1c-1.2,0.1-2.3,0.2-3.7,0.4c0,2.5-0.6,5,0.6,7.7c1-0.1,1.9-0.2,3-0.2
		c0,1.2,0,2.5,0,4c-2.1,1.1-4.4,1-6.6,0.2c-1.8-0.7-2-2.4-2-4.1c-0.1-2.4,0-4.9,0-7.4c-0.7-0.3-1.3-0.5-1.9-0.7c0-1.3,0-2.6,0-3.8
		c0.6-0.2,1.1-0.3,1.7-0.5c0.1-1.1,0.2-2.2,0.3-3.5c1.5,0,3,0,4.6,0c0.1,1.1,0.2,2.2,0.3,3.6C474.4,442.6,475.6,442.7,477,442.8z"/>
	<path fill="#0000FF" d="M687.7,459.3c-2.2,0-4.1,0-6.2,0c-0.5-0.6-1.2-1.3-1.9-2.1c0-3.1,0-6.3,0-9.6c-0.7-0.3-1.3-0.6-1.9-0.9
		c0-1.2,0-2.4,0-3.6c0.5-0.2,1.1-0.5,1.8-0.7c0.1-1.1,0.2-2.2,0.2-3.5c1.6,0,3,0,4.6,0c0.1,1.1,0.2,2.3,0.3,3.6
		c1.2,0.1,2.3,0.2,3.6,0.3c0,1.4,0,2.7,0,4.1c-1.2,0.1-2.3,0.2-3.6,0.3c0,2.4,0,4.8,0,7.5c1.1,0.1,2,0.2,3.1,0.3
		C687.7,456.2,687.7,457.6,687.7,459.3z"/>
	<path fill="#0000FF" d="M632.4,442.6c1.2,0.1,2.1,0.2,3.1,0.3c0,1.3,0,2.6,0,4.1c-0.9,0.1-2,0.2-3.1,0.4c0,2.5,0,4.9,0,7.6
		c1-0.1,2-0.1,3.1-0.2c0,1.2,0,2.5,0,3.9c-2,1.2-4.2,0.9-6.3,0.4c-1.6-0.4-2-1.8-2-3.3c0-2.8,0-5.5,0-8.4c-0.7-0.3-1.3-0.5-1.9-0.7
		c0-1.3,0-2.4,0-3.7c0.6-0.3,1.2-0.5,1.8-0.8c0.1-1.1,0.1-2.2,0.2-3.4c1.5,0,2.9,0,4.6,0C632.2,440,632.3,441.2,632.4,442.6z"/>
	<path fill="#0000FF" d="M414.3,459.3c-1.6,0-2.9,0-4.5,0c0-7.4,0-14.8,0-22.4c1.4,0,2.9,0,4.5,0
		C414.3,444.3,414.3,451.7,414.3,459.3z"/>
	<path fill="#0000FF" d="M554.4,459.3c-1.8,0-3.1,0-4.7,0c0-5.5,0-10.9,0-16.5c1.5,0,2.9,0,4.5,0c0.1,0.5,0.3,1,0.5,1.6
		c0.7-0.6,1.4-1.1,2-1.7c0.8,0,1.6,0,2.5,0c0,1.5,0,3,0,4.5c-0.3,0.2-0.6,0.4-1,0.6c-3.5,1.5-3.8,1.8-3.8,5.6
		C554.4,455.3,554.4,457.2,554.4,459.3z"/>
	<path fill="#0000FF" d="M584.2,437.8c1.6,0,3,0,4.5,0c0,7.1,0,14.2,0,21.4c-1.5,0-2.9,0-4.5,0C584.2,452.2,584.2,445.1,584.2,437.8
		z"/>
	<path fill="#0000FF" d="M639.3,442.8c1.6,0,2.9,0,4.5,0c0,5.5,0,10.9,0,16.5c-1.5,0-2.9,0-4.5,0
		C639.3,453.8,639.3,448.4,639.3,442.8z"/>
	<path fill="#0000FF" d="M401,488.9c-1.6,0-2.9,0-4.5,0c0-5.3,0-10.6,0-16c1.5,0,2.9,0,4.5,0C401,478.1,401,483.4,401,488.9z"/>
	<path fill="#0000FF" d="M395.9,471c0-1.4,0-2.6,0-4c1.7,0,3.4,0,5.2,0c0,1.3,0,2.6,0,4C399.4,471,397.7,471,395.9,471z"/>
	<path fill="#0000FF" d="M638.8,441.5c0-1.4,0-2.7,0-4.1c1.7,0,3.3,0,5.1,0c0,1.3,0,2.6,0,4.1C642.2,441.5,640.6,441.5,638.8,441.5z
		"/>
	<path fill="#0000FF" d="M190.4,467.6c2.4-5.7,4.6-11,6.8-16.4c0.2,0,0.4-0.1,0.7-0.1c2.3,5.4,4.6,10.8,6.9,16.5
		C199.9,467.6,195.3,467.6,190.4,467.6z"/>
</g>
<g>
	<path fill="#0000FF" d="M2377.3,149.3c-11.6,0-20.7,0-31.6,0c-0.4,6.5-1,12.3-1.2,18.1c-0.2,5.9,0,11.9,0,19.7
		c-8.6,0.5-15.8,1-24.8,1.5c0-34.1,0-66.5,0-100.4c7.7,0,14.9,0,23.6,0c0.7,12,1.4,23.3,2.1,36c10.2,0,20.2,0,31.7,0
		c0.8-12.1,1.6-23.8,2.4-36.2c8.2,0,14.9,0,22.9,0c0,33.2,0,65.2,0,99.1c-7,0.5-13.7,1-22.4,1.7
		C2379.1,175.3,2378.3,163.2,2377.3,149.3z"/>
	<path fill="#0000FF" d="M2207.3,501.1c0-34,0-66,0-99.7c22.3-1,43.9-4.2,64.5,5.4c19.8,9.2,27.8,28.5,23.9,55.8
		c-3,21.1-17.4,35.7-40.8,38.2C2240,502.4,2224.6,501.1,2207.3,501.1z M2233.2,479.6c15.2,2.7,27.6,1.6,34.6-11.5
		c6.3-11.7,6.5-24.5-1.4-35.7c-7.9-11.3-19.4-12.6-33.3-9C2233.2,442,2233.2,460.2,2233.2,479.6z"/>
	<path fill="#0000FF" d="M2342.5,344c-8.4,0-15.3,0-23.1,0c0-33.6,0-66,0-99.6c19.3,0,37.3-1.1,55.1,0.4c12.5,1,22.4,7.8,26.8,21
		c4.2,12.8,1.2,23.7-7.7,33.2c-1.8,1.9-4.5,3.1-7.3,4.9c5.9,13.6,11.1,25.4,17.2,39.5c-9.2,0-16.8,0-25.6,0
		c-4.9-11.1-9.9-22.5-15.2-34.7c-5.4,0-10.7,0-17.8,0C2344.2,319.9,2343.4,331.1,2342.5,344z M2375.8,266c-12.8,0-21.7,0-30.8,0
		c0,8.5,0,15.3,0,24.1c10.9-0.8,20.3-1.5,32.4-2.4C2376.7,279.1,2376.3,272.9,2375.8,266z"/>
	<path fill="#0000FF" d="M2869.9,85.9c29.5-2.3,53.1,19.8,53.4,51.6c0.3,31-21.8,52-53.3,52c-30.7-0.1-52.2-20.8-52.7-51
		C2816.8,107.6,2838.4,86.1,2869.9,85.9z M2843.3,137.2c-0.1,18.8,9.9,30.7,25.9,31.1c17,0.4,28.3-11.5,28.7-30.4
		c0.4-18.4-11.4-31.4-28.1-31.2C2853.5,107,2843.4,118.6,2843.3,137.2z"/>
	<path fill="#0000FF" d="M2792.7,99.2c-4.3,5.4-7.9,9.9-11.8,14.8c-17.3-7.2-34.2-13.7-48.1,4.1c-8.3,10.6-8.3,27-0.7,38.5
		c7.6,11.5,18.1,14.1,38,8.5c0.3-4.5,0.5-9.6,0.9-15.4c-7.7-1.2-14-2.2-21.5-3.4c-0.4-4.1-0.7-8.2-1.3-14c14.9,0,28.7,0,44.1,0
		c0,15.3,0,30.8,0,45.8c-27,17.7-61.1,15.2-78.4-5.2c-16.3-19.1-15.9-52.9,0.8-71.1C2733.1,81.6,2766.1,79.9,2792.7,99.2z"/>
	<path fill="#0000FF" d="M2319.3,401.1c25,0,48.8,0,73.7,0c0,6.9,0,12.7,0,20.4c-15.7,0-31.2,0-48.5,0c0,7.3,0,12.7,0,19.8
		c14.6,0,28.1,0,42.4,0c0,6.8,0,11.9,0,18.3c-13.8,0.7-26.7,1.4-41.6,2.1c-0.3,6-0.6,11.4-1,18.6c16.9,0,32,0,48.8,0
		c0.3,7.2,0.6,12.9,0.9,20.1c-25.3,0-49.5,0-74.8,0C2319.3,467.5,2319.3,435.6,2319.3,401.1z"/>
	<path fill="#0000FF" d="M2688.1,184.6c-9.8,0-17.1,0-24.7,0c-2.6-5-5.1-9.7-8.3-15.8c-10.4,0-21.1,0-32.9,0c-2.3,4.6-4.9,9.8-8,16
		c-7.1,0-14.4,0-25,0c12.1-33.6,23.6-65.5,35.6-98.8c9.2,0,18,0,27.8,0C2664.3,118.6,2675.9,150.6,2688.1,184.6z M2640,119.2
		c-1-0.1-1.9-0.1-2.9-0.2c-2.9,9.2-5.8,18.4-8.9,28.5c8.1,0,13.9,0,21.3,0C2646,137.2,2643,128.2,2640,119.2z"/>
	<path fill="#0000FF" d="M2419.3,401.8c18.8,0,36.8-1.4,54.5,0.4c17.5,1.8,26.3,14.5,25.9,32.2c-0.4,16.8-10.8,28.7-28.1,30.7
		c-8.5,1-17.3,0.2-27.3,0.2c-0.5,7-0.9,12.2-1.2,17.5c-0.3,5.4-0.5,10.8-0.9,17.8c-7.6,0.4-14.4,0.7-22.9,1.2
		C2419.3,467.8,2419.3,435,2419.3,401.8z M2444.1,446.2c11-0.9,19.9-1.6,29.8-2.4c0-7.4,0-12.5,0-18c-9.8-6-19.3-6.5-29.8-2.3
		C2444.1,430.5,2444.1,436.8,2444.1,446.2z"/>
	<path fill="#0000FF" d="M2295.3,173.7c-25.6,21.6-59.8,20.8-78.8,0c-18.2-20-17.7-54.4,1.1-73.3c19.4-19.4,53.2-20.2,75.3-0.6
		c-3.7,4.9-7.5,9.9-11.1,14.6c-25.3-10.4-37.9-9.6-47.3,2.6c-8.6,11.2-7.9,32,1.5,42.8c9.7,11.1,23.6,11.3,46.2-0.2
		C2286.2,164,2290.5,168.6,2295.3,173.7z"/>
	<path fill="#0000FF" d="M2571,99.7c-3.7,4.9-7.5,9.8-11,14.4c-28.3-10.2-39.2-9-48.6,4.7c-7.7,11.1-7,29.6,1.5,40.1
		c9.8,12.1,22.6,12.6,47.8,1c3.8,4.3,7.9,8.9,11.9,13.5c-21,21-55,22-75.2,3.3c-20.1-18.6-21.6-54.1-3.1-74.5
		C2512.8,81.4,2546.8,79.8,2571,99.7z"/>
	<path fill="#0000FF" d="M2548.6,423.6c-11.7-0.7-20.3-1.3-30.8-1.9c-0.4-6.5-0.7-12.6-1.2-20.3c30.2,0,58.7,0,88.3,0
		c0,7.1,0,13.2,0,20.2c-10.3,0.7-19.4,1.4-31.1,2.2c0,25.8,0,51.1,0,77c-9.6,0-16.4,0-25.2,0C2548.6,474.9,2548.6,450,2548.6,423.6z
		"/>
	<path fill="#0000FF" d="M2453.6,265.8c-12.1-0.6-20.8-1-31-1.4c0-6.6,0-12.6,0-19.7c28.7,0,56.9,0,86.7,0c0,6.2,0,12.2,0,19.6
		c-9.4,0.5-18.4,1-29.7,1.6c0,25.8,0,51.1,0,78c-9.4,0-16.6,0-26.1,0C2453.6,317.9,2453.6,292.5,2453.6,265.8z"/>
	<path fill="#0000FF" d="M2239.4,244.8c8.4,0,14.7,0,23.3,0c11.5,31.6,23.4,64.1,35.9,98.6c-9.6,0-17.3,0-26.3,0
		C2261.6,311.2,2250.8,278.8,2239.4,244.8z"/>
	<path fill="#0000FF" d="M2455.6,187.4c-7.4,0-13.7,0-22,0c-2.3-32.8-0.9-65.5-0.9-99.3c8.6,0,15.2,0,22.9,0
		C2455.6,121.6,2455.6,153.9,2455.6,187.4z"/>
	<path fill="#0000FF" d="M2240.8,297.6c-5.4,16.9-10,31.2-14.8,46.3c-8.3,0-15.9,0-26.1,0c6-16.7,11.1-31.3,16.5-46.3
		C2224.3,297.6,2231.1,297.6,2240.8,297.6z"/>
</g>
<g>
	<path fill="#0000FF" d="M1347.6,409.9c0-34.2,0-68.3,0-102.1c-0.3-0.3-0.4-0.4-0.5-0.5c-0.1-0.1-0.2-0.2-0.3-0.2
		c-0.3-0.1-0.5-0.1-0.8-0.2c-0.4,0-0.8,0-1.2,0c-33.3,0-66.5-0.1-99.8-0.1c-0.1,0-0.2-0.1-0.3-0.2c-0.8-2.9-0.9-222.2-0.1-227.1
		c1.5,0.4,3,0.8,4.4,1.3c35,11.7,70,23.4,105,35c2.3,0.8,4.9,1.2,7.3,1.2c91.3,0.1,182.6,0.1,273.9,0.1c1.7,0,3.4,0,5.4,0
		c0,97.7,0,195.2,0,292.6C1638,410.5,1353.8,410.7,1347.6,409.9z M1472.8,293.3c50,30.7,100,61.5,150.2,92.4
		c0.8-4.3,0.7-247.8-0.1-250.9c-50,0-99.9,0-150.1,0C1472.8,187.6,1472.8,240.1,1472.8,293.3z M1261.7,103.1
		c-0.9,4-0.9,183.1-0.1,186.3c28.5,0,57.1,0,85.8,0c0-52.7,0-105.1,0-157.7C1318.8,122.1,1290.2,112.6,1261.7,103.1z M1365,306.9
		c0,29,0,57.4,0,85.8c4.5,0.8,232.2,0.7,235.4-0.2c-1.3-0.8-2.3-1.6-3.4-2.3c-44.1-27.1-88.1-54.2-132.2-81.4c-2.2-1.4-4.4-2-7.1-2
		c-29.4,0.1-58.8,0-88.2,0C1368.2,306.9,1366.7,306.9,1365,306.9z M1455,134.4c-30.3,0-60,0-89.7,0c-0.8,4.4-0.7,151.9,0.1,154.9
		c29.9,0,59.7,0,89.6,0C1455,237.6,1455,186.1,1455,134.4z"/>
	<path fill="#0000FF" d="M1636.7,453c-2.4,2.8-4.7,5.6-7,8.4c-11.6-6.9-19.6-6.7-25.5,0.5c-5.5,6.7-5.2,17.2,0.7,23.3
		c5.7,5.9,15.4,6.6,22.8,1.3c0-1.1,0-2.4,0-3.7c0-1-0.1-2.1-0.2-3.5c-3.8,0-7.5,0-11.4,0c0-3.4,0-6.5,0-9.9c7.3,0,14.7,0,22,0
		c0.8,2.7,1.1,16.6,0.4,22.7c-8.9,8.6-25.4,11.1-36.6,5c-7.7-4.2-12-10.8-13.3-19.5c-1-6.5-0.1-12.7,3.3-18.3
		c6.2-10.4,15.8-14.5,27.6-13.5C1627.4,446.5,1631.4,448.4,1636.7,453z"/>
	<path fill="#0000FF" d="M1578.5,452.6c-2.1,3-3.9,5.7-5.8,8.5c-2.5-1.3-4.6-2.5-6.9-3.5c-3-1.4-6.1-1.7-9.3-1.2
		c-2.5,0.3-4.2,1.8-4.6,3.8c-0.4,2.3,0.5,4.1,3.2,5.3c2.3,1,4.7,1.6,7.1,2.4c3,1,6.1,1.8,9,3c6.2,2.7,9.3,7.4,9,13.6
		c-0.3,6.8-3.3,12-9.9,14.4c-8.8,3.1-17.5,2-25.7-2.2c-2.2-1.1-4.1-2.7-6.5-4.3c2.4-2.9,4.4-5.4,6.7-8.2c1.2,0.8,2.3,1.4,3.3,2.1
		c4.1,2.7,8.5,4.3,13.4,4c1.1-0.1,2.1-0.1,3.1-0.4c2.4-0.7,3.9-2.4,4-4.4c0.1-2.3-1.2-3.8-3.2-4.5c-2.7-1-5.5-1.9-8.2-2.8
		c-2.8-0.9-5.6-1.6-8.3-2.7c-11.7-4.7-10.6-19.7-3.3-25.1c2.4-1.7,5.3-3.3,8.2-3.7c7.8-1.2,15.3-0.2,22.1,4.2
		C1576.7,451.1,1577.3,451.7,1578.5,452.6z"/>
	<path fill="#0000FF" d="M1418.8,446.3c2.1,0,3.7,0,5.7,0c7.9,17.6,15.9,35.1,24,53c-2.2,0-4,0-6.2,0c-1.9-4.3-3.9-8.7-6-13.3
		c-9.6,0-19.2,0-29.3,0c-2,4.3-4,8.8-6.1,13.3c-1.9,0-3.6,0-5.9,0C1402.8,481.5,1410.7,464,1418.8,446.3z M1433.6,480.2
		c-4.1-9.1-7.7-17.8-12.2-27c-4.3,9.5-8.1,18.1-12.1,27C1417.7,480.2,1425.3,480.2,1433.6,480.2z"/>
	<path fill="#0000FF" d="M1385.6,452.5c-0.9,1.3-1.9,2.5-3,4.1c-1.3-0.8-2.4-1.6-3.7-2.2c-5.2-3-10.8-4.5-16.7-2.6
		c-5.2,1.6-7.6,6.1-6.1,10.7c0.7,2,1.9,3.6,3.8,4.3c3,1.2,6.2,2.2,9.3,3.2c3.4,1.1,6.9,1.9,10.2,3.3c5.2,2.2,8.1,6.1,8,12.1
		c-0.1,5.9-2.7,10.2-7.9,12.8c-6.1,3.1-12.6,2.6-19,1.1c-4.8-1.2-9-3.7-12.7-7.3c1.1-1.4,2.2-2.7,3.4-4.1c1.3,1,2.5,1.9,3.8,2.8
		c5.7,3.9,11.9,5.6,18.8,4c2.9-0.7,5.4-2.2,6.8-5c2-3.9,1-8.1-2.8-10.3c-2.4-1.4-5.1-2.2-7.7-3c-3.4-1.1-6.9-1.7-10.3-2.9
		c-7.6-2.8-10.4-6.9-9.9-14.3c0.4-6.1,5-11.4,11.9-12.6c8.2-1.5,16.1-0.4,22.9,5C1385.1,451.7,1385.3,452.1,1385.6,452.5z"/>
	<path fill="#0000FF" d="M1525.6,454.3c-1.1,1.2-2.2,2.5-3.6,4c-6.3-5.3-13.1-8.7-21.5-6.6c-4.8,1.2-8.7,3.7-11.7,7.7
		c-6.6,8.8-5.7,22.2,1.9,29.9c8.4,8.5,18.9,8,31.9-1.5c1.1,1,2.2,2.1,3.3,3.2c-5.3,8.1-17.9,11.6-28,8.9
		c-11.4-3.1-19-12.9-19.5-25.1c-0.5-12,6-22.6,16.6-26.9C1504.7,443.6,1518.6,445.7,1525.6,454.3z"/>
	<path fill="#0000FF" d="M1465.7,499.9c-2.1,0-3.7,0-5.7,0c0-17.8,0-35.5,0-53.4c1.9,0,3.6,0,5.7,0
		C1465.7,464.2,1465.7,481.9,1465.7,499.9z"/>
</g>
</svg>
